<?xml version="1.0" encoding="utf-8"?>
<!-- Generator: Adobe Illustrator 16.0.0, SVG Export Plug-In . SVG Version: 6.00 Build 0)  -->
<!DOCTYPE svg PUBLIC "-//W3C//DTD SVG 1.1//EN" "http://www.w3.org/Graphics/SVG/1.1/DTD/svg11.dtd">
<svg version="1.1" id="Layer_1" xmlns="http://www.w3.org/2000/svg" xmlns:xlink="http://www.w3.org/1999/xlink" x="0px" y="0px"
	 width="368.5px" height="283.46px" viewBox="0 0 368.5 283.46" enable-background="new 0 0 368.5 283.46" xml:space="preserve">
<g id="base_template">
</g>
<g id="elements">
</g>
<g id="examples">
	<g id="map">
	</g>
</g>
<g id="graphic">
	<g>
		<rect x="42.52" fill="#E34A85" width="283.46" height="283.46"/>
		<g>
			<g>
				<defs>
					<rect id="SVGID_1_" x="42.52" width="283.46" height="283.46"/>
				</defs>
				<clipPath id="SVGID_2_">
					<use xlink:href="#SVGID_1_"  overflow="visible"/>
				</clipPath>
				<g clip-path="url(#SVGID_2_)">
					<g>
						<path fill="#BCCAE5" d="M117.402,4.799c0-3.936,0.743-7.636,2.235-11.096c1.489-3.458,3.513-6.467,6.067-9.022
							c2.555-2.554,5.561-4.575,9.021-6.067c3.458-1.489,7.158-2.235,11.097-2.235c3.937,0,7.637,0.747,11.097,2.235
							c3.458,1.492,6.491,3.513,9.101,6.067c2.608,2.555,4.656,5.563,6.147,9.022c1.489,3.46,2.236,7.16,2.236,11.096
							c0,3.939-0.746,7.639-2.236,11.097c-1.492,3.46-3.54,6.494-6.147,9.101c-2.609,2.609-5.643,4.658-9.101,6.147
							c-3.46,1.492-7.16,2.236-11.097,2.236c-3.939,0-7.639-0.744-11.097-2.236c-3.461-1.489-6.465-3.538-9.021-6.147
							c-2.555-2.607-4.578-5.641-6.067-9.101C118.145,12.438,117.402,8.738,117.402,4.799z"/>
						<path fill="#BCCAE5" d="M193.708-8.214h152.114v26.185H193.708V-8.214z"/>
						<path fill="#BCCAE5" d="M193.708,29.555h152.114v26.186H193.708V29.555z"/>
						<path fill="#BCCAE5" d="M193.708,67.325h152.114V93.51H193.708V67.325z"/>
					</g>
					<g>
						<path fill="#BCCAE5" d="M117.402,160.743c0-3.937,0.743-7.637,2.235-11.097c1.489-3.458,3.513-6.467,6.067-9.021
							c2.555-2.554,5.561-4.575,9.021-6.067c3.458-1.489,7.158-2.236,11.097-2.236c3.937,0,7.637,0.747,11.097,2.236
							c3.458,1.492,6.491,3.513,9.101,6.067c2.608,2.555,4.656,5.563,6.147,9.021c1.489,3.46,2.236,7.16,2.236,11.097
							c0,3.938-0.746,7.64-2.236,11.097c-1.492,3.46-3.54,6.494-6.147,9.101c-2.609,2.61-5.643,4.658-9.101,6.147
							c-3.46,1.492-7.16,2.235-11.097,2.235c-3.939,0-7.639-0.743-11.097-2.235c-3.461-1.489-6.465-3.537-9.021-6.147
							c-2.555-2.606-4.578-5.641-6.067-9.101C118.145,168.382,117.402,164.681,117.402,160.743z"/>
						<path fill="#BCCAE5" d="M193.708,147.73h152.114v26.186H193.708V147.73z"/>
						<path fill="#BCCAE5" d="M193.708,185.5h152.114v26.185H193.708V185.5z"/>
						<path fill="#BCCAE5" d="M193.708,223.268h152.114v26.185H193.708V223.268z"/>
					</g>
				</g>
			</g>
		</g>
	</g>
</g>
</svg>
