<?xml version="1.0" encoding="utf-8"?>
<!-- Generator: Adobe Illustrator 16.0.0, SVG Export Plug-In . SVG Version: 6.00 Build 0)  -->
<!DOCTYPE svg PUBLIC "-//W3C//DTD SVG 1.1//EN" "http://www.w3.org/Graphics/SVG/1.1/DTD/svg11.dtd">
<svg version="1.1" id="Layer_1" xmlns="http://www.w3.org/2000/svg" xmlns:xlink="http://www.w3.org/1999/xlink" x="0px" y="0px"
	 width="368.5px" height="283.46px" viewBox="0 0 368.5 283.46" enable-background="new 0 0 368.5 283.46" xml:space="preserve">
<g id="base_template">
</g>
<g id="elements">
</g>
<g id="examples">
	<g id="map">
	</g>
</g>
<g id="graphic">
	<g>
		<rect x="42.52" fill="#FFC222" width="283.46" height="283.46"/>
		<g>
			<path fill="#7E6E5B" d="M218.259,151.873h-65.341V86.532c0-11.772,1.27-22.854,3.829-33.257
				c2.547-10.392,6.475-19.517,11.772-27.374c5.298-7.845,11.964-14.124,20.012-18.834C196.57,2.355,206.282,0,217.668,0v29.434
				c-6.674,0-12.168,1.676-16.482,5.006c-4.32,3.337-7.854,7.752-10.596,13.241c-2.75,5.501-4.615,11.681-5.592,18.543
				c-0.982,6.87-1.47,13.641-1.47,20.307h34.73V151.873L218.259,151.873z M325.98,151.873h-65.338V86.532
				c0-11.772,1.266-22.854,3.824-33.257c2.548-10.392,6.476-19.517,11.772-27.374c5.298-7.845,11.968-14.124,20.017-18.834
				C304.291,2.355,314.004,0,325.393,0v29.434c-6.678,0-12.168,1.676-16.482,5.006c-4.324,3.337-7.857,7.752-10.595,13.241
				c-2.751,5.501-4.618,11.681-5.593,18.543c-0.986,6.87-1.473,13.641-1.473,20.307h34.73V151.873z"/>
		</g>
	</g>
</g>
</svg>
