<?xml version="1.0" encoding="utf-8"?>
<!-- Generator: Adobe Illustrator 16.0.0, SVG Export Plug-In . SVG Version: 6.00 Build 0)  -->
<!DOCTYPE svg PUBLIC "-//W3C//DTD SVG 1.1//EN" "http://www.w3.org/Graphics/SVG/1.1/DTD/svg11.dtd">
<svg version="1.1" xmlns="http://www.w3.org/2000/svg" xmlns:xlink="http://www.w3.org/1999/xlink" x="0px" y="0px" width="173px"
	 height="82px" viewBox="0 0 173 82" enable-background="new 0 0 173 82" xml:space="preserve">
<g id="Layer_2">
</g>
<g id="Layer_1">
	<g>
		<path fill="#808285" d="M49.276,41.003c0,4.769-3.859,8.63-8.623,8.63c-4.767,0-8.633-3.861-8.633-8.63
			c0-4.763,3.866-8.626,8.633-8.626C45.417,32.377,49.276,36.241,49.276,41.003L49.276,41.003z"/>
		<path fill="#808285" d="M49.276,71.74c0,4.766-3.859,8.625-8.623,8.625c-4.767,0-8.633-3.859-8.633-8.625
			c0-4.767,3.866-8.631,8.633-8.631C45.417,63.109,49.276,66.974,49.276,71.74L49.276,71.74z"/>
		<path fill="#808285" d="M49.276,10.293c0,4.763-3.859,8.624-8.623,8.624c-4.767,0-8.633-3.861-8.633-8.624
			c0-4.765,3.866-8.63,8.633-8.63C45.417,1.664,49.276,5.529,49.276,10.293L49.276,10.293z"/>
		<path fill="#808285" d="M18.174,41.003c0,4.769-3.862,8.63-8.625,8.63c-4.763,0-8.631-3.861-8.631-8.63
			c0-4.763,3.868-8.626,8.631-8.626C14.312,32.377,18.174,36.241,18.174,41.003L18.174,41.003z"/>
		<path fill="#808285" d="M18.174,71.74c0,4.766-3.857,8.625-8.625,8.625c-4.763,0-8.631-3.859-8.631-8.625
			c0-4.767,3.868-8.631,8.631-8.631C14.317,63.109,18.174,66.974,18.174,71.74L18.174,71.74z"/>
		<path fill="#808285" d="M18.174,10.293c0,4.763-3.857,8.624-8.625,8.624c-4.763,0-8.631-3.861-8.631-8.624
			c0-4.765,3.868-8.63,8.631-8.63C14.317,1.664,18.174,5.529,18.174,10.293L18.174,10.293z"/>
		<path fill="#808285" d="M93.763,51.511c0.005,0.004,0.009,0.004,0.016,0.017"/>
		<path fill="#808285" d="M81.414,71.74c0,4.766-3.864,8.625-8.625,8.625c-4.767,0-8.629-3.859-8.629-8.625
			c0-4.767,3.862-8.631,8.629-8.631C77.549,63.109,81.414,66.974,81.414,71.74L81.414,71.74z"/>
		<path fill="#808285" d="M81.414,10.293c0,4.763-3.864,8.624-8.625,8.624c-4.767,0-8.629-3.861-8.629-8.624
			c0-4.765,3.862-8.63,8.629-8.63C77.549,1.664,81.414,5.529,81.414,10.293L81.414,10.293z"/>
		<path fill="#231F20" d="M74.898,41.557c-0.13-0.067-0.23,0.045-0.23,0.045l-0.191,0.146c0,0-0.052,0.076-0.011,0.117
			c0.043,0.037,0.149-0.05,0.149-0.05l0.178-0.108l0.124-0.056C74.918,41.651,75.038,41.611,74.898,41.557L74.898,41.557z
			 M79.796,39.11c-0.008,0.327-0.05,0.646-0.106,0.961c0.046,0.103,0.246,0.242,0.267,0.358c0.015,0.117-0.193,0.267-0.258,0.159
			c-0.039-0.05-0.071-0.074-0.104-0.091c-0.291,1.144-0.868,2.178-1.659,3.014l0.562,0.568c0.021-0.055,0.021-0.112,0.021-0.168
			c-0.037-0.198,0.028-0.258,0.067-0.258c0.045,0,0.299,0.004,0.378,0.249c0.023,0.086,0.039-0.007,0.089,0.151
			c-0.026,0.08,0.03,0.252,0.03,0.252s0.035,0.062,0.054,0.141c0.013,0.041-0.006,0.088-0.02,0.171
			c1.374-1.457,2.238-3.381,2.318-5.507H79.796L79.796,39.11z M77.69,45.836c0.334-0.229,0.647-0.472,0.942-0.741l-0.052-0.052
			c-0.061,0.013-0.12,0.005-0.152-0.029c-0.035-0.045-0.059-0.108-0.078-0.196l-0.855-0.851c-0.076,0.1-0.183,0.179-0.183,0.179
			l-0.009,0.213c0.541,0.259,0.671,0.483,0.665,0.599c-0.013,0.115-0.389,0.437-0.389,0.533c0,0.101,0.141,0.179,0.135,0.28
			C77.712,45.799,77.703,45.82,77.69,45.836L77.69,45.836z M73.088,45.87v1.475c0.445-0.018,0.879-0.072,1.296-0.146
			c-0.241-0.201-0.341-0.201-0.397-0.234c-0.087-0.055-0.171-0.201-0.26-0.435c-0.089-0.236,0.169-0.253,0.11-0.42
			c-0.065-0.173-0.601-0.11-0.601-0.11S73.316,46.1,73.088,45.87L73.088,45.87z M72.458,45.741
			c-1.643-0.072-3.146-0.686-4.307-1.688c0.061,0.071,0.122,0.13,0.197,0.193c0.324,0.283,0.369,0.449,0.344,0.599
			c-0.021,0.161-0.739,0.139-0.739,0.139l-0.015,0.009c-0.25,0.122-0.629,0.195-0.779,0.171c-0.091-0.017-0.134-0.069-0.191-0.121
			l-0.067,0.072c1.472,1.328,3.415,2.157,5.557,2.229V45.741L72.458,45.741z M65.767,39.711c-0.027-0.2-0.053-0.391-0.06-0.601
			h-1.63c0.031,0.798,0.165,1.57,0.407,2.297c0.005,0,0.012-0.004,0.017-0.009c0.062-0.039,0.015-0.07,0.035-0.158
			c0.028-0.083,0.108,0.012,0.137-0.054c0.026-0.063-0.028-0.088-0.028-0.15c0-0.06,0.084-0.081,0.089-0.135
			c0.015-0.055-0.035,0.037-0.054-0.101c-0.014-0.137,0.069-0.291,0.069-0.312c0-0.013,0.057-0.128,0.13-0.28
			c0.074-0.15,0.35-0.225,0.441-0.326c0.02-0.022,0.076-0.195,0.247-0.226C65.646,39.65,65.707,39.67,65.767,39.711L65.767,39.711z
			 M65.707,38.484c0.074-1.708,0.777-3.256,1.876-4.427l-1.14-1.148c-1.408,1.464-2.291,3.42-2.366,5.575H65.707L65.707,38.484z
			 M68.036,33.619c1.181-1.053,2.726-1.71,4.423-1.78v-1.602c-2.144,0.066-4.092,0.903-5.564,2.234L68.036,33.619L68.036,33.619z
			 M73.088,31.839c1.315,0.062,2.535,0.478,3.573,1.154c-0.056-0.083-0.1-0.188-0.11-0.214c-0.035-0.058,0.084-0.096,0.084-0.096
			c-0.191-0.254-0.23-0.367-0.163-0.42c0.067-0.055,0.251,0.101,0.352,0.257c0.095,0.163,0.228,0.321,0.308,0.332
			c0.083,0.015,0.261,0.011,0.302,0.169c0.043,0.15,0.098,0.184,0.146,0.401c0.011,0.033,0.015,0.063,0.03,0.095l0.478-0.476
			c-0.05-0.104-0.119-0.225-0.265-0.296l-0.35,0.117c0,0-0.124,0.059-0.163-0.021c-0.046-0.083-0.046-0.25-0.046-0.25
			s-0.134-0.084-0.134-0.154c0-0.074,0.074-0.297,0.017-0.377c-0.045-0.082-0.152-0.148-0.152-0.148s-0.056-0.276-0.108-0.408
			c-0.048-0.119-0.332-0.36-0.332-0.36s-0.002-0.025-0.002-0.054c-1.055-0.512-2.225-0.807-3.464-0.853V31.839L73.088,31.839z
			 M77.975,34.108c0.043,0.051,0.085,0.092,0.13,0.146c0.119,0.142,0.245,0.292,0.356,0.446c0.059,0.076,0.115,0.159,0.171,0.239
			c0.048-0.018,0.106-0.072,0.165-0.096c0.106-0.067,0.167,0,0.198,0.132c0.043,0.139-0.2,0.122-0.122,0.252
			c0.03,0.041,0.219-0.013,0.248,0c0.021,0.021,0.054,0.108-0.018,0.187c-0.052,0.056-0.102,0.081-0.111,0.13
			c0.026,0.045,0.046,0.078,0.07,0.121c0.089,0.042,0.25-0.042,0.25,0.104c0,0.166,0.13,0.284,0.147,0.431
			c0.013,0.095-0.024,0.149-0.069,0.228c0.065,0.176,0.122,0.352,0.167,0.535c0.046-0.034,0.106-0.05,0.156-0.041
			c0,0.003,0,0.029,0,0.029s0.022,0.167,0.009,0.238c-0.009,0.055-0.024,0.188-0.037,0.275c0.013,0.088,0.028,0.167,0.037,0.254
			c0.033,0.101,0.05,0.23,0.065,0.352h-0.016c0.016,0.138,0.024,0.272,0.024,0.414h1.641c-0.045-1.091-0.28-2.119-0.692-3.065
			c-0.028-0.004-0.059-0.009-0.087-0.009c0,0-0.134,0.097-0.241,0.097c-0.098,0-0.154-0.138-0.154-0.138s-0.456-0.606-0.527-0.656
			c0,0-0.081-0.08-0.263-0.104c-0.189-0.018-0.159-0.106-0.159-0.106s-0.217-0.098-0.382-0.152l-0.135-0.27
			c0,0,0.009-0.091-0.013-0.128c-0.02-0.03-0.333-0.039-0.333-0.039s-0.139-0.069-0.212-0.145l-0.265,0.276
			C77.981,34.065,77.981,34.086,77.975,34.108L77.975,34.108z M84.372,38.792c0,6.327-5.201,11.454-11.609,11.454
			c-6.421,0-11.629-5.127-11.629-11.454c0-6.333,5.208-11.462,11.629-11.462C79.171,27.331,84.372,32.46,84.372,38.792
			L84.372,38.792z M72.784,36.851h-0.021c-0.148,0-0.291,0.016-0.426,0.047c0.033,0.016,0.07,0.032,0.048,0.092
			c-0.035,0.092,0.074,0.342,0.074,0.342c-0.158,0.292-0.721,0.387-0.721,0.387c-0.098,0.072-0.059,0.192-0.178,0.265
			c-0.125,0.07-0.167,0.116-0.239,0.207c-0.057,0.089-0.042,0.176-0.079,0.28c-0.032,0.108,0.049,0.163,0.022,0.238
			c-0.03,0.066-0.063,0.302-0.112,0.363c-0.042,0.063-0.142-0.026-0.201-0.045c-0.065-0.016-0.102-0.33-0.135-0.371
			c-0.009-0.013-0.017-0.013-0.026,0c-0.004,0.041-0.004,0.091-0.004,0.137c0,0.133,0.013,0.268,0.041,0.393
			c0.08-0.029,0.063-0.054,0.085-0.059c0.197-0.013,0.073,0.126,0.158,0.126c0.096,0,0.151-0.038,0.159-0.218
			c0.004-0.18,0.167-0.192,0.229-0.18c0.05,0.005,0.004,0.13,0.027,0.168c0.026,0.034,0.091,0,0.091,0.113
			c0,0.109-0.197,0.238-0.23,0.401c-0.03,0.167-0.081,0.2-0.146,0.216c-0.104,0.018-0.082-0.191-0.143-0.096
			c-0.037,0.072,0.134,0.272,0.134,0.272c0.111-0.092,0.15-0.172,0.187-0.25c0.039-0.081,0.117-0.072,0.206-0.126
			s0.093-0.321,0.089-0.38c-0.013-0.066,0.098-0.049,0.53-0.069c0.452-0.026,0.408,0.115,0.38,0.232
			c-0.021,0.134,0.063-0.02,0.063,0.109c0,0.139-0.163,0.259-0.21,0.376c-0.039,0.116,0.071,0.129,0.011,0.179
			c-0.05,0.055-0.078,0.121-0.078,0.121c-0.23,0.268-0.25,0.105-0.386,0.163c-0.148,0.067-0.309,0.038-0.309,0.038
			c-0.035,0.009-0.059,0.017-0.089,0.029c0.328,0.238,0.731,0.376,1.177,0.376c0.093,0,0.188-0.01,0.284-0.021
			c0.048-0.222,0.124-0.585,0.3-0.676c0.191-0.11,0.386,0.051,0.49,0.007c0.096-0.042,0.126-0.138,0.15-0.2
			c0.026-0.062,0.087-0.239,0.048-0.364c-0.048-0.124-0.139-0.07-0.163-0.157c-0.028-0.093,0.163-0.098,0.065-0.212
			c-0.147-0.19-0.113-0.328-0.165-0.369c-0.054-0.042-0.096,0.013-0.154-0.074c-0.063-0.081,0.026-0.144,0.037-0.23
			c0.006-0.096,0.15-0.109,0.132-0.185c-0.015-0.078-0.098-0.013-0.119-0.112c-0.013-0.092,0.065-0.242,0.065-0.242
			s-0.226,0.009-0.256-0.072c-0.026-0.088-0.169-0.28-0.332-0.363c-0.163-0.08-0.419-0.025-0.419-0.025
			c-0.039-0.129-0.228-0.264-0.228-0.264c-0.152-0.201-0.061-0.173,0.022-0.267c0.08-0.083,0.243,0.013,0.271-0.012
			C72.799,36.875,72.793,36.864,72.784,36.851L72.784,36.851z M79.527,32.484c0.371,0.38,0.703,0.797,0.997,1.24
			c0.084,0.074,0.226,0.217,0.256,0.318c0.009,0.05,0.009,0.079,0.022,0.108c0.021,0.042,0.052,0.088,0.071,0.134
			c0.004,0.009,0.026,0.021,0.028,0.037c0.13,0.138,0.163,0.206,0.248,0.372c0.039,0.08,0.052,0.155,0.061,0.226
			c0.512,1.091,0.816,2.297,0.859,3.567h1.669c-0.074-2.777-1.213-5.295-3.03-7.173L79.527,32.484L79.527,32.484z M73.325,29.616
			c1.368,0.086,2.657,0.459,3.806,1.062l0.326-0.139c0,0-0.106-0.02,0.05,0.011c0.154,0.028,0.104,0.013,0.287,0.076
			c0.189,0.06,0.2,0,0.278,0.03c0.074,0.029,0.093,0.158,0.182,0.231c0.098,0.07,0.072,0.011,0.2,0.07
			c0.124,0.062,0.282,0.249,0.324,0.335c0.041,0.084,0.117-0.043,0.189,0.384c0,0,0.145,0.154,0.228,0.256l1.06-1.064
			c-1.884-1.734-4.394-2.821-7.164-2.905v1.349c0.015-0.011,0.043-0.011,0.076,0.012c0.12,0.071,0.167,0.06,0.159,0.188
			C73.323,29.542,73.325,29.584,73.325,29.616L73.325,29.616z M66.45,32.026c1.593-1.448,3.694-2.349,6.009-2.425v-1.638
			c-2.772,0.07-5.288,1.158-7.183,2.89L66.45,32.026L66.45,32.026z M63.443,38.484c0.077-2.331,1.038-4.438,2.555-6.021
			l-1.172-1.171c-1.829,1.88-2.977,4.407-3.054,7.192H63.443L63.443,38.484z M66,45.124c-0.197-0.215-0.393-0.428-0.567-0.653
			c-0.167-0.062-0.158-0.107-0.329-0.241c-0.186-0.15-0.08-0.302-0.153-0.334c-0.043-0.014-0.043,0.071-0.056,0.089
			c-0.02,0.028-0.111,0.04-0.217,0.004c-0.106-0.034-0.21-0.185-0.21-0.185c-0.18-0.139-0.16-0.311-0.192-0.363
			c-0.034-0.051-0.146,0-0.208-0.017c-0.061-0.021-0.061-0.121-0.13-0.164c-0.058-0.029-0.155-0.007-0.155-0.007
			c-0.041-0.067-0.208-0.31-0.241-0.326c0,0,0,0.162-0.135,0.162c-0.151,0-0.338-0.31-0.405-0.347
			c-0.059-0.029-0.095,0.07-0.184,0.013c-0.085-0.066-0.167-0.371-0.179-0.425c-0.01-0.055-0.071-0.131-0.103-0.222
			c-0.036-0.094,0.013-0.551,0.032-0.61c0.043-0.113,0.087,0.007,0.126-0.17c0.033-0.176,0.139-0.168,0.215-0.171
			c0.082-0.009,0.111,0.021,0.151,0.083c0.034,0.063,0.146,0.012,0.205-0.018c0.05-0.024,0-0.1,0.003-0.147
			c0.008-0.043,0.127-0.023,0.209-0.065c0.078-0.045,0.203-0.071,0.232,0.004l0.012,0.025c-0.16-0.623-0.257-1.265-0.273-1.929
			h-1.675c0.077,2.788,1.229,5.307,3.06,7.183L66,45.124L66,45.124z M72.458,47.974c-2.311-0.07-4.409-0.972-6.002-2.417
			l-1.171,1.174c1.89,1.733,4.404,2.814,7.173,2.885V47.974L72.458,47.974z M79.071,45.541c-0.514,0.471-1.079,0.885-1.691,1.23
			c-0.009,0.018-0.015,0.039-0.02,0.05c-0.12,0.322-0.378,0.588-0.441,0.698c-0.065,0.104-0.095,0.033-0.23,0.141
			c-0.137,0.105-0.054,0.188-0.21,0.252c-0.159,0.058-0.267,0.104-0.267,0.104s-0.452,0.476-0.912-0.029
			c-0.083-0.061-0.228-0.084-0.321-0.184l-0.061-0.075c-0.59,0.137-1.2,0.222-1.83,0.241v1.646c2.768-0.085,5.271-1.168,7.159-2.901
			L79.071,45.541L79.071,45.541z M82.069,39.11c-0.08,2.322-1.038,4.418-2.546,5.996l1.179,1.165
			c1.811-1.866,2.957-4.384,3.037-7.161H82.069L82.069,39.11z M78.22,38.484h0.951c-0.011-0.263-0.039-0.518-0.087-0.773
			c-0.039,0.072-0.074,0.137-0.141,0.213c-0.093,0.105-0.202,0.042-0.311,0.096c-0.108,0.05-0.028,0.154-0.045,0.225
			c-0.018,0.071,0.093,0.046,0.052,0.145c-0.043,0.11-0.156,0.043-0.219,0.043C78.376,38.434,78.298,38.378,78.22,38.484
			L78.22,38.484z M76.336,35.677c0.084,0.089,0.154,0.183,0.232,0.271c0.022-0.02,0.072-0.029,0.193-0.009
			c0.189,0.035,0.488,0.083,0.632,0.101c0.182,0.025,0.239,0.363,0.341,0.409c0.104,0.041,0.08,0.079,0.089,0.18
			c0.015,0.1-0.08,0.072-0.063,0.137c0.015,0.076,0.078,0.146,0.154,0.076c0.067-0.076,0.197-0.176,0.389-0.141
			c0.312,0.052,0.204,0.241,0.33,0.27c0.124,0.042,0.078,0.066,0.124,0.118c0.043,0.058-0.015,0.128-0.089,0.154
			c-0.071,0.024-0.071,0.079-0.071,0.132c0,0.054-0.072,0.122-0.076,0.172c-0.013,0.041-0.067,0.195,0,0.195
			c0.061,0,0.12,0.061,0.176-0.012c0.048-0.066,0.297-0.309,0.293-0.442v-0.038c-0.065-0.254-0.145-0.505-0.245-0.752
			c-0.033-0.061-0.063-0.108-0.096-0.135c-0.113-0.085-0.523-0.291-0.597-0.399c-0.069-0.106,0.021-0.13,0.093-0.2
			c0.05-0.056,0.108-0.176,0.084-0.293c-0.035-0.054-0.074-0.113-0.113-0.171c-0.078-0.1-0.221-0.289-0.391-0.518
			c-0.074-0.092-0.15-0.175-0.23-0.266L76.336,35.677L76.336,35.677z M73.088,34.091c1.068,0.072,2.041,0.492,2.8,1.148l1.155-1.158
			c-1.06-0.938-2.436-1.539-3.955-1.615V34.091L73.088,34.091z M69.643,35.219c0.762-0.652,1.747-1.069,2.815-1.128v-1.625
			c-1.524,0.067-2.907,0.664-3.975,1.594L69.643,35.219L69.643,35.219z M68.849,36.075c0.11-0.146,0.217-0.285,0.338-0.413
			L68.034,34.5c-0.994,1.061-1.622,2.447-1.693,3.984h0.708c-0.028-0.029-0.088-0.137-0.068-0.214
			c0.02-0.08-0.045-0.364-0.025-0.413c0.019-0.047,0.088-0.101,0.127-0.146c0.028-0.058,0-0.139,0.022-0.171
			c0.022-0.042,0.088-0.117,0.147-0.184c0.048-0.06,0.035-0.225,0.189-0.292c0.147-0.075,0.182,0.006,0.284-0.009
			c0.111-0.017,0.1-0.155,0.1-0.155s-0.037-0.05,0.028-0.148c0.063-0.105,0.441-0.201,0.441-0.201s-0.015-0.097,0.223-0.281
			C68.664,36.154,68.787,36.1,68.849,36.075L68.849,36.075z M67.995,38.484c0.004-0.072,0.009-0.137,0.018-0.208
			c-0.059-0.026-0.128-0.043-0.191-0.043c-0.171,0-0.324,0.102-0.315,0.252H67.995L67.995,38.484z M66.874,39.11h-0.533
			c0.014,0.401,0.076,0.785,0.165,1.161c0.09-0.042,0.082-0.092,0.086-0.151c0.009-0.062,0.094-0.049,0.122-0.099
			c0.025-0.054,0.022-0.054-0.012-0.084c-0.025-0.028-0.11-0.093-0.129-0.185c-0.02-0.099,0.05-0.178,0.089-0.283
			c0.039-0.112-0.007-0.146,0.044-0.242C66.758,39.135,66.726,39.227,66.874,39.11L66.874,39.11z M69.196,41.934
			c-0.545-0.603-0.936-1.346-1.111-2.16c-0.011-0.004-0.022-0.018-0.033-0.038c-0.069-0.116-0.176-0.08-0.176-0.08
			s-0.05,0.351-0.05,0.373c0,0.016-0.028,0.196-0.111,0.188c-0.081-0.013-0.113-0.097-0.113-0.097s-0.124,0.008-0.139-0.036
			c-0.021-0.048-0.131-0.155-0.015-0.251c0.108-0.1,0.093,0.096,0.176-0.012c0.081-0.109-0.095-0.55,0.033-0.567
			c0.092-0.009,0.228,0.204,0.26,0.216c0.018,0,0.061-0.012,0.106-0.032c-0.006-0.11-0.024-0.219-0.028-0.327h-0.712
			c-0.03,0.075-0.013,0.336-0.083,0.383c-0.068,0.042-0.327-0.05-0.355,0.117c-0.044,0.241,0.083,0.135,0.083,0.302
			s-0.078,0.063-0.028,0.219c0.055,0.165,0.312,0.218,0.352,0.402c0.048,0.193,0.119,0.275,0.141,0.327
			c0.02,0.041-0.111,0.142-0.025,0.271c0.079,0.135,0.16,0.35,0.138,0.426c-0.017,0.072-0.017,0.283,0.063,0.626
			c0.083,0.342,0.087,0.116,0.208,0.342c0.059,0.112,0.073,0.238,0.065,0.339c0.059,0.079,0.128,0.149,0.192,0.217L69.196,41.934
			L69.196,41.934z M71.677,43.381c-0.764-0.174-1.453-0.525-2.024-1.019l-1.158,1.166c0.885,0.777,1.993,1.313,3.217,1.507
			c-0.191-0.109-0.322-0.181-0.332-0.193c-0.019-0.045-0.072-0.154-0.252-0.365c-0.176-0.213-0.142-0.369-0.142-0.369
			c0.125-0.041,0.159-0.112,0.159-0.112s0.077-0.326,0.237-0.456C71.46,43.48,71.56,43.432,71.677,43.381L71.677,43.381z
			 M75.383,42.723c-0.069,0.041-0.139,0.09-0.217,0.133c0.009,0,0.013,0.004,0.024,0.009c0.132,0.041,0.632,0.104,0.779,0.229
			c0.139,0.129,0.406,0.167,0.406,0.167c0.187-0.021,0.306-0.024,0.386-0.033l-0.208-0.209c-0.132-0.033-0.254-0.091-0.269-0.104
			c-0.21-0.102-0.163,0.045-0.354-0.059C75.791,42.779,75.53,42.742,75.383,42.723L75.383,42.723z M79.01,40.229
			c0.087-0.36,0.141-0.736,0.161-1.119h-0.968c0.067,0.071,0.146,0.116,0.187,0.163c0.1,0.095,0.063,0.211,0.083,0.309
			c0.018,0.096,0.102,0.088,0.263,0.238c0.159,0.155,0.139,0.288,0.207,0.375C78.965,40.221,78.982,40.229,79.01,40.229
			L79.01,40.229z M76.54,41.666c-0.041,0.05-0.078,0.091-0.113,0.138c0.007-0.003,0.018-0.013,0.026-0.021
			c0.098-0.059,0.152,0.046,0.217-0.051c0.061-0.096,0.061-0.175,0.115-0.26c0.054-0.086,0.221-0.095,0.33-0.091
			c0.106,0.004,0.1-0.034,0.163,0.151c0.059,0.192,0.042,0.355,0.042,0.355c0.052,0.042-0.096,0.189-0.104,0.497
			c-0.011,0.166-0.091,0.059-0.083,0.268l-0.026,0.028l0.115,0.113c0.009-0.014,0.026-0.038,0.035-0.07
			c0.071-0.16,0.176-0.243,0.224-0.165c0.039,0.053,0.074,0.222,0.115,0.395c0.584-0.652,1.029-1.433,1.298-2.289l-0.046,0.012
			c-0.062,0-0.278,0.055-0.484,0.083c-0.2,0.025-0.378,0.018-0.378,0.018s-0.11-0.101-0.147-0.04
			c-0.054,0.067-0.087,0.261-0.258,0.218c-0.163-0.037-0.076-0.218-0.132-0.229c-0.054-0.021,0.009,0.07-0.054,0.17
			c-0.065,0.091-0.234,0.339-0.261,0.39c-0.026,0.053-0.36,0.07-0.408,0.15C76.689,41.499,76.629,41.611,76.54,41.666L76.54,41.666z
			 M75.15,40.727l0.465,0.463c0.017-0.092-0.063-0.276-0.063-0.276l-0.213-0.1l-0.083-0.054l0.043-0.1l-0.057-0.021L75.15,40.727
			L75.15,40.727z M74.868,42.3c0.069-0.037,0.137-0.083,0.208-0.125c-0.072-0.008-0.152,0.013-0.185,0.083
			C74.888,42.275,74.879,42.292,74.868,42.3L74.868,42.3z M70.097,41.919c0.574,0.482,1.285,0.803,2.067,0.91
			c0.006,0.026,0.006,0.052,0.013,0.081c0,0,0.05,0.042,0.124,0.049c0.089,0.014,0.212,0,0.312-0.104
			c0.113-0.113,0.089-0.034,0.167-0.05c0,0,0.076-0.126,0.154-0.23c0.078-0.041,0.113-0.149,0.147-0.158l0.007,0.438
			c0.556-0.043,1.081-0.191,1.552-0.43c-0.089-0.009-0.202-0.146-0.234-0.15c-0.054-0.018,0.046,0.163,0.052,0.204
			c0.009,0.046-0.248,0.126-0.267,0.096c-0.083-0.137-0.206-0.158-0.213-0.133c-0.024,0.222-0.115,0.163-0.115,0.163
			c-0.219-0.313-0.289-0.114-0.395-0.226c-0.106-0.117-0.161-0.071-0.161-0.071c-0.083-0.009-0.144,0.075-0.219,0.104
			c-0.042,0.014-0.076,0.122-0.154,0.163c-0.078,0.104-0.154,0.23-0.154,0.23c-0.078,0.016-0.054-0.063-0.167,0.05
			c-0.1,0.104-0.224,0.117-0.312,0.104c-0.074-0.007-0.124-0.045-0.124-0.045c-0.006-0.033-0.006-0.059-0.013-0.085
			c0-0.065-0.007-0.116-0.002-0.165c0.002-0.302,0.052-0.385,0.065-0.406c0.035-0.054,0.144-0.027,0.232-0.024v-0.372l-0.011-0.055
			c-0.011-0.028,0-0.045,0.011-0.059V41.34c-0.475-0.053-0.918-0.234-1.281-0.506L70.097,41.919L70.097,41.919z M70.205,39.294
			c-0.006-0.041-0.015-0.079-0.017-0.122c-0.048,0.05-0.2,0.029-0.179,0.101C70.013,39.298,70.097,39.298,70.205,39.294
			L70.205,39.294z M68.742,39.816c0.163,0.622,0.474,1.194,0.901,1.665l1.085-1.086c-0.046-0.057-0.089-0.115-0.135-0.174
			c0,0-0.004,0-0.006,0.004c-0.097,0.046-0.027,0.169-0.085,0.222c-0.047,0.041-0.102,0.108-0.134,0.179
			c-0.026,0.07-0.198,0.234-0.293,0.151c-0.081-0.089-0.018-0.498-0.14-0.506c-0.058-0.009-0.028,0.032,0,0.188
			c0.029,0.162-0.083,0.087-0.134,0.061c-0.054-0.033-0.093-0.061-0.224-0.17c-0.133-0.121-0.032-0.196-0.032-0.196
			s-0.113-0.091-0.147-0.083c-0.035,0.008-0.016,0.083-0.106,0.049c-0.089-0.041-0.089-0.201-0.089-0.201s-0.091,0-0.314-0.067
			C68.84,39.836,68.788,39.825,68.742,39.816L68.742,39.816z M72.458,34.718c-0.903,0.066-1.718,0.409-2.373,0.948l0.625,0.626
			c0.113,0.013,0.091,0.104,0.215,0.137c0.125,0.039,0.113-0.024,0.208-0.037c0.096-0.004,0.037,0.059,0.076,0.108
			c0.032,0.051,0.106-0.033,0.106-0.033c0.102-0.063,0.076,0.046,0.195-0.013c0.128-0.05,0.053-0.125,0.115-0.204
			c0.061-0.076,0.048-0.122,0.048-0.209c0-0.092,0.112-0.181,0.161-0.241c0.043-0.059,0.096-0.055,0.148,0.015
			c0.043,0.071-0.059,0.114-0.034,0.173c0.025,0.04,0.211-0.022,0.509-0.068V34.718L72.458,34.718z M75.337,35.604
			c-0.621-0.497-1.4-0.815-2.249-0.882v1.195c0.25,0.046,0.436,0.125,0.436,0.125s0.042-0.013,0.042-0.018
			c0.139-0.257,0.33-0.224,0.384-0.257c0.05-0.039,0.037-0.092,0.108-0.163c0.069-0.076,0.182,0.016,0.2,0.083
			c0.024,0.059,0.028,0.326-0.124,0.551c-0.083,0.117-0.202,0.171-0.31,0.213c0.193,0.088,0.367,0.196,0.529,0.317l0.12-0.117
			c0.011-0.032,0.024-0.061,0.024-0.061s0.045-0.026,0.122-0.08l0.517-0.521c-0.013,0-0.026-0.009-0.05-0.022
			c-0.059-0.05-0.222-0.067,0.089-0.272C75.235,35.653,75.29,35.623,75.337,35.604L75.337,35.604z M75.997,36.245
			c-0.028-0.042-0.067-0.078-0.104-0.121l-0.115,0.113c0.063,0.076,0.174,0.191,0.143,0.138
			C75.891,36.33,75.958,36.342,75.997,36.245L75.997,36.245z M77.955,30.215c0.076-0.061,0.096,0.022,0.178,0.044
			c0.083,0.019,0.083-0.059,0.204,0c0.124,0.055,0.156,0.146,0.161,0.229c0.021,0.085,0.071,0.155,0.089,0.215
			c0.02,0.065-0.135,0.149-0.228,0.095c-0.089-0.05-0.195-0.221-0.195-0.221l-0.25-0.186C77.914,30.393,77.879,30.278,77.955,30.215
			L77.955,30.215z M73.249,29.176c0,0,0.067-0.092,0.124-0.068c0.061,0.025,0.204,0.027,0.204,0.027l0.371-0.133l0.293-0.127
			l0.111-0.062c0,0,0.417-0.078,0.821,0.249c0.045,0.04,0.084,0.072,0.113,0.092l-0.113-0.118c0,0,0.317,0.28,0.113,0.118
			l-0.042,0.103c0,0-0.254,0.161-0.352,0.18c-0.098,0.022-0.252-0.02-0.252-0.02l-0.215-0.033l-0.471,0.128
			c0,0-0.299,0.029-0.466-0.096c-0.165-0.126-0.222-0.161-0.222-0.161L73.249,29.176L73.249,29.176z M78.105,34.254
			c0.059,0.066,0.25,0.309,0.33,0.392c0.017,0.018,0.026,0.042,0.026,0.054C78.35,34.546,78.224,34.396,78.105,34.254L78.105,34.254
			z"/>
		<path fill="#231F20" d="M78.734,50.897c0.063,0.012,0.903-0.164,2.214-0.301c1.315-0.142,1.841-0.08,2.785-0.326
			c1.044-0.267,1.574-0.818,1.848-1.119c0,0,0.069-0.032,0.043,0.038c-0.016,0.059-0.667,1.306-2.18,2.062
			c-1.509,0.756-3.113,0.572-3.51,0.488c-0.399-0.079-0.968-0.258-1.552-0.417c-0.59-0.154-1.35-0.313-1.715-0.293
			c0,0-0.048-0.074,0.078-0.1c0.193-0.03,0.934-0.188,1.407-0.401c0.825-0.371,1.515-1.189,2.064-1.704
			c0.545-0.513,1.45-1.436,1.976-1.665c0,0,0.045,0.004,0,0.059c-0.043,0.054-0.428,0.593-0.641,1.107
			c-0.202,0.508-0.467,1.053-0.849,1.49c-0.395,0.43-0.927,0.812-1.969,1.039C78.734,50.855,78.667,50.897,78.734,50.897
			L78.734,50.897z M88.076,45.164c-0.007,0.005-0.174,1.558-1.678,2.914c-1.126,1.028-2.082,1.413-2.62,1.546
			c-0.515,0.126-1.099,0.192-1.584,0.292c-0.484,0.091-1.205,0.285-1.348,0.354c0,0-0.054,0.022-0.026-0.024
			c0.035-0.051,0.226-0.125,0.755-0.823c0.528-0.71,0.983-2.309,0.983-2.309s0.263-0.827,0.539-1.395
			c0.276-0.56,1.146-1.8,1.313-1.929c0,0,0.084-0.046,0.076,0.013c-0.008,0.05-0.204,0.384-0.314,0.93
			c-0.198,0.894-0.239,1.825-0.352,2.176c-0.115,0.363-0.309,1.018-0.745,1.566c-0.504,0.618-0.504,0.547-0.899,0.906
			c-0.083,0.049,0.013,0.041,0.013,0.041s0.406-0.233,0.699-0.454c0.289-0.228,0.619-0.518,1.179-0.855
			c0.554-0.33,1.148-0.485,2.236-1.125c1.09-0.638,1.493-1.348,1.713-1.824C88.015,45.164,88.069,45.065,88.076,45.164
			L88.076,45.164z M85.519,40.521c0,0-0.072,0.489-0.022,0.843c0.054,0.36,0.443,1.822,0.426,2.616
			c-0.022,0.788-0.213,1.478-0.701,2.188l0.037,0.021c0,0,0.833-1.174,1.229-1.691c0.403-0.512,1.239-1.289,1.641-1.736
			c0.413-0.46,0.763-1.111,0.912-1.996h0.028c0,0,0.219,1.336-0.332,2.601c-0.554,1.266-1.138,1.73-1.537,2.102
			c-0.399,0.374-1.583,1.164-2.167,1.498c-0.58,0.338-1.025,0.71-1.025,0.71s-0.047-0.014-0.047-0.033
			c0-0.021,0.449-0.865,0.58-1.377c0.117-0.52,0.224-1.371,0.256-2.017c0.033-0.651,0.234-2.995,0.669-3.722L85.519,40.521
			L85.519,40.521z M85.308,36.864c-0.015-0.05-0.078-0.101-0.086,0.003c-0.007,0.105-0.007,1.146,0.302,2.439
			c0.217,0.848,0.753,2.645,0.825,2.894c0.12,0.424,0.091,1.388-0.013,1.738c0,0,0.013,0.1,0.063,0.042
			c0.05-0.06,0.571-0.937,0.869-1.262c0.3-0.329,1.016-1.212,1.216-1.679c0.19-0.46,0.643-1.465,0.57-2.914
			c-0.054-1.308-0.437-2.084-0.437-2.084s-0.054-0.037-0.039,0.013c0.014,0.051,0.09,0.639,0.018,1.169
			c-0.08,0.529-0.195,0.877-0.499,1.532c-0.306,0.647-0.602,1.407-0.69,1.661c-0.08,0.259-0.185,0.86-0.245,1.282
			c-0.063,0.428-0.25,0.74-0.25,0.74l-0.043-0.035c0,0,0.173-0.343,0.219-1.096c0.041-0.774-0.274-1.58-0.491-1.951
			C86.244,38.755,85.338,37.453,85.308,36.864L85.308,36.864z M86.854,31.88c-0.054-0.06-0.028,0.028-0.028,0.028
			s0.441,0.634,0.423,1.731c-0.018,1.094-0.169,1.148-0.2,2.122c-0.026,0.968,0.12,2.162,0.12,2.162h-0.052
			c0,0-0.026-0.613-0.347-1.331c-0.372-0.815-1.913-2.047-1.913-2.047s-0.521-0.5-0.575-0.786c-0.046-0.062-0.081-0.011-0.081-0.011
			s0.126,0.788,0.566,1.762c0.428,0.976,1.429,1.945,1.728,2.518c0.291,0.568,0.46,0.637,0.68,1.727l0.05,0.013
			c0,0,0.006-0.476,0.349-1.487c0.35-1.009,0.424-0.914,0.608-1.838c0.187-0.933,0.048-1.868-0.009-2.061
			C88.115,34.191,87.776,32.868,86.854,31.88L86.854,31.88z M86.656,35.836c0,0-0.188-0.408-0.571-0.813
			c-0.187-0.201-0.51-0.553-0.916-0.877c-0.402-0.327-0.875-0.622-1.162-0.89c-0.597-0.553-1.242-1.56-1.224-2.465
			c0,0,0.287,0.547,0.675,0.928c0.388,0.384,1.341,0.911,1.732,1.27c0.391,0.359,0.812,0.834,0.981,1.408h0.072
			c0,0-0.428-1.111-0.525-1.525c-0.104-0.412-0.195-1.095-0.438-1.767c-0.237-0.641-0.53-0.955-0.953-1.232
			c-0.02,0,0.035-0.037,0.035-0.037s1.641,0.249,2.269,2.412c0.176,0.624-0.015,2.073,0.021,2.644
			c0.043,0.574,0.061,0.944,0.061,0.944H86.656L86.656,35.836z M81.148,28.325c0,0,0.506,0.175,1.068,0.389
			c0.567,0.211,1.205,0.527,1.669,1.033c0.767,0.832,0.958,1.591,1.144,2.216c0.057,0.226,0.2,0.549,0.224,0.546
			c0.031-0.007-0.021,0.05-0.021,0.05s-1.437-1.141-1.86-1.623c-0.419-0.478-0.938-1.349-1.307-1.715
			C81.687,28.849,81.148,28.325,81.148,28.325L81.148,28.325z M62.694,51.983c0,0,1.398,1.623,3.51,1.632
			c1.665,0.008,2.813-0.915,2.813-0.915s1.216-0.863,1.843-1.173c0.519-0.258,1.303-0.05,1.303-0.05s-0.868,0.321-1.706,0.932
			c-0.856,0.617-1.145,0.822-1.978,1.665l0.715,0.605c0,0,0.519-0.73,1.509-1.582c0.983-0.852,1.552-1.159,2.167-1.411
			c0,0,1.997,0.898,3.632,2.973l0.727-0.61c0,0-1.643-1.686-3.671-2.556c0,0,0.191-0.115,1.06-0.032
			c0.38,0.037,0.731,0.338,1.153,0.636c0.423,0.286,1.224,0.847,1.778,1.081c0.558,0.233,1.29,0.383,1.893,0.4
			c0.605,0.012,2.314-0.226,3.545-1.679c0,0-0.007-0.043-0.043-0.021c-0.76,0.382-1.164,0.672-2.429,0.648
			c-0.675-0.021-1.522-0.224-2.612-0.714c-1.094-0.494-1.81-0.818-3.083-0.841c-1.27-0.003-1.869,0.213-1.988,0.261
			c0,0-0.582-0.264-1.73-0.276c-1.148-0.009-2.177,0.325-2.827,0.643c-0.641,0.309-1.875,1.002-3.3,0.993
			c-1.356-0.007-2.206-0.641-2.231-0.651C62.716,51.938,62.694,51.983,62.694,51.983L62.694,51.983z M66.957,50.956
			c-0.066,0.013-0.926-0.172-2.229-0.314c-1.315-0.141-1.895-0.062-2.847-0.304c-1.041-0.263-1.553-0.793-1.827-1.094
			c0,0-0.067-0.028-0.05,0.032c0.022,0.063,0.677,1.299,2.182,2.054c1.507,0.758,3.2,0.526,3.59,0.444
			c0.396-0.075,0.964-0.251,1.552-0.414c0.583-0.158,1.352-0.31,1.712-0.301c0,0,0.048-0.065-0.078-0.088
			c-0.187-0.029-0.701-0.049-1.402-0.403c-1.146-0.59-1.559-1.153-2.11-1.672c-0.545-0.521-1.479-1.415-2.002-1.647
			c0,0-0.041,0.004-0.003,0.061c0.046,0.059,0.428,0.576,0.645,1.086c0.2,0.519,0.465,1.031,0.864,1.471
			c0.387,0.431,0.966,0.818,2.005,1.043C66.957,50.909,67.021,50.947,66.957,50.956L66.957,50.956z M57.53,45.27
			c0.007,0.004,0.202,1.562,1.697,2.922c1.138,1.024,2.172,1.415,2.72,1.537c0.519,0.111,1.092,0.18,1.573,0.271
			c0.486,0.097,1.163,0.259,1.306,0.335c0,0,0.05,0.021,0.022-0.03c-0.035-0.046-0.222-0.133-0.749-0.838
			c-0.532-0.698-1.016-2.306-1.016-2.306s-0.212-0.643-0.482-1.209c-0.278-0.562-1.243-1.946-1.404-2.069c0,0-0.083-0.05-0.074,0
			c0.002,0.056,0.195,0.365,0.313,0.912c0.11,0.543,0.273,1.823,0.394,2.184c0.108,0.354,0.308,1.047,0.749,1.594
			c0.503,0.623,0.503,0.542,0.896,0.907c0.084,0.046-0.013,0.028-0.013,0.028s-0.445-0.241-0.727-0.473
			c-0.295-0.22-0.408-0.367-0.964-0.701c-0.557-0.338-1.326-0.601-2.416-1.243c-1.091-0.64-1.548-1.341-1.767-1.82
			C57.588,45.27,57.537,45.174,57.53,45.27L57.53,45.27z M60.022,40.631c0,0,0.085,0.504,0.032,0.858
			c-0.05,0.358-0.408,1.804-0.386,2.589c0.023,0.788,0.232,1.481,0.725,2.192l-0.039,0.021c0,0-0.831-1.169-1.231-1.684
			c-0.395-0.517-1.257-1.265-1.641-1.745c-0.378-0.48-0.815-1.077-0.955-1.963h-0.036c0,0-0.192,1.315,0.362,2.579
			c0.56,1.258,1.155,1.739,1.55,2.105c0.399,0.376,1.596,1.153,2.175,1.486c0.593,0.337,1.036,0.711,1.036,0.711
			s0.045-0.014,0.045-0.035c0-0.02-0.456-0.863-0.58-1.381c-0.122-0.51-0.23-1.36-0.258-2.013c-0.033-0.647-0.292-3.007-0.725-3.741
			L60.022,40.631L60.022,40.631z M60.214,36.914c0.019-0.05,0.082-0.104,0.09,0.004c0,0.108-0.072,1.599-0.265,2.455
			c-0.187,0.852-0.76,2.635-0.818,2.885c-0.061,0.255-0.089,1.387,0.006,1.747c0,0-0.006,0.099-0.052,0.035
			c-0.052-0.056-0.592-0.896-0.892-1.223c-0.298-0.329-1.028-1.227-1.224-1.69c-0.205-0.468-0.691-1.734-0.592-3.178
			c0.101-1.44,0.426-1.795,0.426-1.795s0.06-0.029,0.043,0.016c-0.016,0.055-0.094,0.619-0.021,1.144
			c0.078,0.525,0.25,1.077,0.588,1.692c0.349,0.63,0.552,1.281,0.63,1.54c0.089,0.25,0.21,0.793,0.275,1.215
			c0.068,0.426,0.245,0.74,0.245,0.74l0.032-0.013c0,0-0.183-0.339-0.201-1.115c-0.021-0.777,0.168-1.34,0.486-1.949
			C59.297,38.804,60.186,37.494,60.214,36.914L60.214,36.914z M58.583,31.988c0.049-0.055,0.083,0.008,0.083,0.008
			s-0.456,0.547-0.436,1.65c0.02,1.101,0.202,1.29,0.228,2.262c0.026,0.968-0.115,2.134-0.115,2.134H58.4
			c0,0-0.011-0.623,0.386-1.423c0.389-0.803,1.914-2.051,1.914-2.051s0.461-0.476,0.515-0.748c0.041-0.069,0.073,0.013,0.073,0.013
			s-0.076,0.71-0.518,1.683c-0.435,0.977-1.356,1.925-1.646,2.493c-0.293,0.572-0.544,0.776-0.764,1.87l-0.052,0.004
			c0,0-0.03-0.509-0.377-1.515c-0.341-1.011-0.434-0.861-0.617-1.791c-0.183-0.923-0.041-1.984,0.013-2.171
			C57.382,34.212,57.653,32.981,58.583,31.988L58.583,31.988z M58.841,35.929c0,0,0.185-0.406,0.571-0.81
			c0.187-0.202,0.515-0.553,0.917-0.877c0.41-0.328,0.875-0.66,1.173-0.931c0.596-0.545,1.148-1.552,1.127-2.458
			c0,0-0.22,0.536-0.609,0.917c-0.394,0.387-1.345,0.938-1.741,1.301c-0.392,0.363-0.826,0.851-0.996,1.431l-0.028-0.006
			c0,0,0.403-1.136,0.505-1.549c0.099-0.414,0.196-1.102,0.442-1.771c0.236-0.638,0.498-0.933,0.92-1.212
			c0.011,0-0.005-0.047-0.005-0.047s-1.67,0.249-2.3,2.416c-0.185,0.627,0.05,2.093,0.011,2.668
			c-0.041,0.568-0.041,0.928-0.041,0.928H58.841L58.841,35.929z M64.214,28.42c0,0-0.389,0.134-0.959,0.345
			c-0.558,0.211-1.234,0.547-1.696,1.05c-0.768,0.839-0.965,1.616-1.145,2.247c-0.099,0.342-0.192,0.585-0.192,0.585
			s1.437-1.142,1.871-1.622c0.413-0.476,0.91-1.384,1.287-1.75C63.752,28.906,64.214,28.42,64.214,28.42L64.214,28.42z"/>
		<path fill="#FFFFFF" d="M172.036,41.008c0,22.077-17.907,39.98-39.987,39.98c-22.105,0-40.004-17.903-40.004-39.98
			c0-22.083,17.898-40.012,40.004-40.012C154.128,0.996,172.036,18.925,172.036,41.008L172.036,41.008z"/>
		<path fill="#808285" d="M168.621,47.329h-6.094l-1.463,6.126h-4.993l6.79-25.366h5.825l3.354,12.661
			c-0.137-21.968-17.989-39.762-39.984-39.762c-17.61,0-32.55,11.377-37.903,27.168h2.876v17.609c0,2.595,1.132,3.96,3.129,3.96
			s3.128-1.365,3.128-3.96V28.156h5.061v17.575c0,5.592-3.431,8.156-8.188,8.156c-3.039,0-5.534-1.049-6.942-3.261
			c4.309,17.434,20.054,30.361,38.841,30.361c17.762,0,32.818-11.586,38.033-27.611L168.621,47.329L168.621,47.329z M126.856,53.455
			h-4.095l-7.521-15.412v15.412h-4.629V28.156h4.83l6.789,14.712V28.156h4.626V53.455L126.856,53.455z M141.222,32.55h-7.058v6.125
			l5.508-0.015v4.51h-5.508v10.285h-5.025V28.156h12.083V32.55L141.222,32.55z M148.459,44.4v9.055h-4.992V28.156h6.023
			c5.36,0,8.82,2.695,8.82,8.022c0,5.392-3.493,8.155-9.087,8.222H148.459L148.459,44.4z"/>
		<path fill="#808285" d="M149.326,40.373h-0.9v-8.188h0.966c2.696,0,4.129,1.363,4.129,4.061
			C153.52,39.075,152.055,40.373,149.326,40.373L149.326,40.373z"/>
		<polygon fill="#808285" points="163.393,43.269 165.59,33.982 167.756,43.269 163.393,43.269 		"/>
	</g>
</g>
</svg>
