<?xml version="1.0" encoding="utf-8"?>
<!-- Generator: Adobe Illustrator 16.0.0, SVG Export Plug-In . SVG Version: 6.00 Build 0)  -->
<!DOCTYPE svg PUBLIC "-//W3C//DTD SVG 1.1//EN" "http://www.w3.org/Graphics/SVG/1.1/DTD/svg11.dtd">
<svg version="1.1" id="Layer_1" xmlns="http://www.w3.org/2000/svg" xmlns:xlink="http://www.w3.org/1999/xlink" x="0px" y="0px"
	 width="5336px" height="1200px" viewBox="0 0 5336 1200" enable-background="new 0 0 5336 1200" xml:space="preserve">
<g>
	<g>
		<g>
			<g>
				<g>
					<path fill="#0590C7" d="M1237.858,615.156c-2.005-1.002-3.486,0.697-3.486,0.697l-2.832,2.18c0,0-0.807,1.133-0.153,1.742
						c0.61,0.566,2.201-0.74,2.201-0.74l2.681-1.635l1.829-0.807C1238.097,616.594,1239.884,615.982,1237.858,615.156z
						 M1310.778,578.724c-0.109,4.837-0.763,9.63-1.634,14.293c0.696,1.547,3.704,3.596,3.987,5.361
						c0.239,1.743-2.854,3.966-3.857,2.353c-0.545-0.74-1.045-1.111-1.481-1.35c-4.403,17.039-12.987,32.467-24.754,44.887
						l8.412,8.475c0.304-0.805,0.304-1.676,0.304-2.504c-0.566-2.965,0.415-3.836,1.025-3.836c0.676,0,4.466,0.043,5.599,3.727
						c0.35,1.242,0.589-0.131,1.33,2.244c-0.413,1.178,0.458,3.727,0.458,3.727s0.522,0.938,0.829,2.113
						c0.174,0.631-0.088,1.307-0.349,2.549c20.526-21.723,33.338-50.4,34.58-82.038H1310.778z M1279.422,678.934
						c4.925-3.42,9.609-7.037,14.033-11.068l-0.764-0.74c-0.938,0.174-1.808,0.064-2.288-0.459c-0.5-0.674-0.85-1.59-1.154-2.896
						l-12.791-12.703c-1.133,1.48-2.702,2.658-2.702,2.658l-0.086,3.18c8.018,3.857,9.935,7.234,9.849,8.893
						c-0.218,1.742-5.796,6.535-5.796,7.975c0,1.502,2.135,2.68,2.047,4.184C1279.684,678.391,1279.552,678.695,1279.422,678.934z
						 M1210.796,679.436V701.4c6.667-0.24,13.117-1.068,19.349-2.18c-3.618-2.984-5.1-2.984-5.949-3.486
						c-1.263-0.807-2.506-2.984-3.857-6.471c-1.351-3.531,2.528-3.77,1.613-6.254c-0.959-2.572-8.911-1.656-8.911-1.656
						S1214.194,682.857,1210.796,679.436z M1201.47,677.518c-24.536-1.066-46.893-10.219-64.215-25.145
						c0.894,1.045,1.852,1.918,2.985,2.855c4.795,4.248,5.448,6.73,5.099,8.955c-0.304,2.375-11.069,2.047-11.069,2.047
						l-0.195,0.133c-3.684,1.807-9.349,2.939-11.615,2.568c-1.307-0.26-1.961-1.066-2.832-1.807l-0.981,1.045
						c21.943,19.807,50.857,32.162,82.824,33.23V677.518z M1101.715,587.657c-0.371-2.963-0.74-5.839-0.828-8.933h-24.339
						c0.48,11.853,2.462,23.358,6.079,34.209c0.088,0,0.174-0.066,0.262-0.131c0.915-0.566,0.174-1.068,0.48-2.354
						c0.435-1.264,1.611,0.174,2.026-0.828c0.392-0.914-0.415-1.307-0.415-2.223c0-0.893,1.242-1.199,1.309-2.004
						c0.217-0.807-0.501,0.566-0.785-1.482c-0.218-2.07,1.045-4.357,1.045-4.662c0-0.197,0.829-1.94,1.961-4.184
						c1.068-2.245,5.186-3.355,6.537-4.859c0.306-0.305,1.133-2.898,3.705-3.355
						C1099.951,586.742,1100.887,587.047,1101.715,587.657z M1100.887,569.375c1.09-25.472,11.527-48.547,27.935-65.979
						l-16.996-17.083c-21.006,21.791-34.167,50.945-35.278,83.063H1100.887z M1135.534,496.859
						c17.606-15.689,40.615-25.494,65.936-26.519v-23.882c-31.987,1.002-61.034,13.467-82.933,33.317L1135.534,496.859z
						 M1210.796,470.341c19.632,0.937,37.827,7.125,53.242,17.192c-0.827-1.221-1.481-2.789-1.655-3.181
						c-0.48-0.872,1.263-1.395,1.263-1.395c-2.778-3.813-3.387-5.491-2.386-6.275c0.993-0.829,3.695,1.481,5.22,3.834
						c1.437,2.441,3.398,4.794,4.619,4.968s3.834,0.131,4.489,2.483c0.653,2.245,1.481,2.746,2.136,5.971
						c0.174,0.501,0.26,0.958,0.479,1.438l7.104-7.104c-0.741-1.547-1.787-3.355-3.967-4.401l-5.142,1.743
						c0,0-1.875,0.872-2.485-0.305c-0.652-1.264-0.652-3.749-0.652-3.749s-2.005-1.241-2.005-2.31c0-1.089,1.09-4.4,0.262-5.577
						c-0.698-1.221-2.266-2.223-2.266-2.223s-0.829-4.141-1.613-6.08c-0.74-1.765-4.969-5.382-4.969-5.382s-0.042-0.392-0.042-0.807
						c-15.723-7.626-33.131-12.006-51.631-12.725V470.341z M1283.605,504.137c0.61,0.763,1.265,1.394,1.961,2.179
						c1.787,2.135,3.683,4.357,5.317,6.667c0.871,1.134,1.722,2.354,2.572,3.553c0.696-0.262,1.525-1.068,2.396-1.438
						c1.613-0.98,2.528,0,2.985,2.005c0.633,2.026-3.006,1.808-1.809,3.727c0.437,0.609,3.269-0.196,3.705,0
						c0.348,0.304,0.785,1.612-0.26,2.789c-0.785,0.828-1.527,1.177-1.657,1.917c0.349,0.697,0.654,1.198,1.024,1.83
						c1.33,0.61,3.727-0.632,3.727,1.547c0,2.485,1.917,4.228,2.245,6.429c0.151,1.395-0.436,2.222-1.112,3.399
						c1.045,2.615,1.83,5.229,2.528,7.975c0.697-0.523,1.546-0.741,2.31-0.632c0,0.064,0,0.457,0,0.457s0.304,2.484,0.13,3.53
						c-0.13,0.807-0.393,2.789-0.566,4.097c0.174,1.307,0.436,2.483,0.566,3.792c0.48,1.503,0.74,3.442,1.002,5.251h-0.262
						c0.262,2.048,0.371,4.053,0.371,6.166h24.448c-0.698-16.255-4.162-31.573-10.329-45.693c-0.436-0.065-0.871-0.109-1.33-0.109
						c0,0-1.96,1.417-3.529,1.417c-1.483,0-2.31-2.048-2.31-2.048s-6.821-9.043-7.889-9.763c0,0-1.177-1.198-3.878-1.547
						c-2.832-0.261-2.354-1.568-2.354-1.568s-3.246-1.481-5.731-2.311l-2.026-3.987c0,0,0.197-1.351-0.174-1.917
						c-0.261-0.436-4.924-0.566-4.924-0.566s-2.049-1.068-3.138-2.158l-4.011,4.097
						C1283.737,503.527,1283.737,503.832,1283.605,504.137z M1378.958,573.974c0,94.263-77.485,170.657-173.022,170.657
						c-95.658,0-173.25-76.395-173.25-170.657c0-94.394,77.593-170.811,173.25-170.811
						C1301.473,403.163,1378.958,479.58,1378.958,573.974z M1206.263,545.014h-0.327c-2.201,0-4.336,0.262-6.297,0.698
						c0.48,0.261,1.046,0.479,0.719,1.373c-0.522,1.373,1.112,5.099,1.112,5.099c-2.376,4.358-10.809,5.775-10.809,5.775
						c-1.393,1.068-0.784,2.876-2.57,3.921c-1.875,1.09-2.528,1.766-3.595,3.139c-0.85,1.307-0.633,2.593-1.156,4.161
						c-0.522,1.612,0.741,2.441,0.306,3.574c-0.437,0.958-0.938,4.467-1.657,5.404c-0.654,0.915-2.112-0.393-3.006-0.697
						c-0.959-0.24-1.483-4.903-2.005-5.535c-0.13-0.196-0.262-0.196-0.392,0c-0.044,0.632-0.044,1.373-0.044,2.048
						c0,2.004,0.174,3.965,0.589,5.839c1.198-0.436,0.98-0.785,1.328-0.872c2.876-0.174,1.091,1.874,2.31,1.874
						c1.439,0,2.245-0.566,2.397-3.225c0.044-2.702,2.44-2.876,3.356-2.702c0.784,0.087,0.086,1.961,0.413,2.528
						c0.393,0.479,1.395,0,1.395,1.656c0,1.612-2.985,3.552-3.465,5.971c-0.435,2.506-1.177,3.007-2.156,3.247
						c-1.548,0.239-1.198-2.855-2.114-1.438c-0.566,1.068,1.984,4.075,1.984,4.075c1.676-1.396,2.245-2.572,2.767-3.749
						c0.587-1.197,1.764-1.089,3.094-1.873c1.307-0.828,1.438-4.794,1.307-5.666c-0.174-0.98,1.481-0.74,7.887-1.045
						c6.756-0.392,6.102,1.743,5.71,3.464c-0.349,1.983,0.915-0.305,0.915,1.634c0,2.049-2.418,3.857-3.159,5.579
						c-0.522,1.743,1.068,1.961,0.174,2.68c-0.697,0.828-1.198,1.809-1.198,1.809c-3.4,3.987-3.704,1.568-5.774,2.44
						c-2.157,0.98-4.554,0.567-4.554,0.567c-0.479,0.108-0.829,0.217-1.307,0.413c4.881,3.551,10.896,5.6,17.497,5.6
						c1.438,0,2.854-0.131,4.293-0.305c0.697-3.289,1.83-8.716,4.445-10.068c2.832-1.634,5.752,0.742,7.277,0.109
						c1.481-0.632,1.917-2.048,2.244-2.985c0.393-0.937,1.307-3.551,0.72-5.403c-0.72-1.874-2.049-1.067-2.397-2.375
						c-0.437-1.372,2.397-1.416,0.958-3.159c-2.222-2.833-1.699-4.881-2.484-5.491c-0.828-0.61-1.395,0.196-2.266-1.111
						c-0.938-1.199,0.37-2.114,0.566-3.422c0.065-1.438,2.222-1.612,1.938-2.745c-0.239-1.177-1.46-0.175-1.743-1.678
						c-0.195-1.373,0.938-3.617,0.938-3.617s-3.4,0.131-3.834-1.067c-0.348-1.308-2.484-4.162-4.925-5.426
						c-2.439-1.177-6.276-0.349-6.276-0.349c-0.566-1.961-3.398-3.944-3.398-3.944c-2.223-2.985-0.894-2.593,0.348-3.987
						c1.2-1.221,3.618,0.217,4.032-0.175C1206.502,545.407,1206.393,545.21,1206.263,545.014z M1306.791,479.95
						c5.491,5.666,10.438,11.897,14.817,18.478c1.219,1.111,3.354,3.225,3.791,4.75c0.13,0.741,0.13,1.176,0.304,1.591
						c0.371,0.632,0.829,1.329,1.134,2.004c0.042,0.109,0.37,0.306,0.435,0.545c1.917,2.048,2.419,3.05,3.661,5.535
						c0.568,1.177,0.742,2.31,0.873,3.355c7.669,16.256,12.202,34.231,12.812,53.167h24.884
						c-1.112-41.4-18.107-78.922-45.171-106.901L1306.791,479.95z M1214.369,437.199c20.352,1.307,39.57,6.864,56.686,15.819
						l4.837-2.048c0,0-1.569-0.306,0.74,0.152c2.354,0.436,1.569,0.218,4.315,1.134c2.79,0.893,2.92,0,4.097,0.458
						c1.089,0.435,1.395,2.354,2.79,3.442c1.416,1.046,1.068,0.153,2.92,1.046c1.853,0.915,4.183,3.704,4.837,4.968
						c0.61,1.264,1.743-0.609,2.788,5.753c0,0,2.158,2.31,3.421,3.791l15.753-15.819c-28.021-25.864-65.444-42.033-106.758-43.317
						v20.111c0.26-0.152,0.675-0.152,1.177,0.175c1.743,1.067,2.484,0.915,2.331,2.811
						C1214.303,436.109,1214.369,436.719,1214.369,437.199z M1111.891,473.152c23.729-21.594,55.02-35.038,89.579-36.171v-24.404
						c-41.313,1.045-78.836,17.257-107.075,43.1L1111.891,473.152z M1067.092,569.375c1.155-34.733,15.449-66.154,38.066-89.73
						l-17.476-17.476c-27.192,28.044-44.364,65.675-45.497,107.206H1067.092z M1105.202,668.301
						c-2.92-3.158-5.818-6.342-8.454-9.719c-2.462-0.914-2.354-1.59-4.881-3.596c-2.79-2.244-1.177-4.486-2.289-4.988
						c-0.654-0.152-0.654,1.068-0.829,1.328c-0.327,0.438-1.678,0.611-3.246,0.045c-1.592-0.502-3.138-2.746-3.138-2.746
						c-2.66-2.047-2.354-4.576-2.833-5.404c-0.523-0.74-2.222,0-3.137-0.238c-0.916-0.328-0.916-1.809-1.94-2.42
						c-0.872-0.457-2.331-0.131-2.331-0.131c-0.568-1.002-3.073-4.619-3.574-4.859c0,0,0,2.42-2.026,2.42
						c-2.245,0-5.035-4.598-6.035-5.143c-0.873-0.459-1.396,1.045-2.746,0.174c-1.265-1.002-2.527-5.535-2.66-6.34
						c-0.151-0.809-1.045-1.941-1.569-3.312c-0.522-1.373,0.241-8.215,0.524-9.088c0.653-1.678,1.307,0.133,1.874-2.549
						c0.48-2.592,2.091-2.461,3.247-2.549c1.154-0.107,1.634,0.326,2.2,1.264c0.522,0.938,2.201,0.174,3.029-0.262
						c0.762-0.369,0-1.48,0.109-2.178c0.086-0.676,1.874-0.371,3.094-1.002c1.198-0.676,3.05-1.047,3.442,0.064l0.197,0.393
						c-2.377-9.305-3.814-18.871-4.12-28.741h-24.927c1.133,41.53,18.305,79.053,45.606,107.008L1105.202,668.301z M1201.47,710.77
						c-34.473-1.047-65.762-14.469-89.491-35.998l-17.454,17.477c28.153,25.844,65.652,41.947,106.945,43.014V710.77z
						 M1299.992,674.512c-7.669,7.059-16.125,13.205-25.232,18.346c-0.13,0.264-0.218,0.566-0.305,0.764
						c-1.787,4.793-5.622,8.781-6.538,10.395c-0.958,1.547-1.437,0.502-3.442,2.092c-2.047,1.568-0.828,2.811-3.126,3.748
						c-2.397,0.871-3.966,1.566-3.966,1.566s-6.755,7.105-13.596-0.434c-1.221-0.938-3.4-1.266-4.795-2.746l-0.894-1.111
						c-8.802,2.047-17.933,3.291-27.301,3.596v24.535c41.27-1.264,78.584-17.434,106.715-43.273L1299.992,674.512z
						 M1344.618,578.724c-1.177,34.557-15.428,65.803-37.871,89.338l17.476,17.344c26.997-27.803,44.103-65.326,45.28-106.682
						H1344.618z M1287.267,569.375h14.206c-0.195-3.922-0.566-7.735-1.307-11.549c-0.61,1.09-1.089,2.07-2.07,3.182
						c-1.416,1.591-3.071,0.632-4.64,1.46c-1.634,0.741-0.458,2.31-0.676,3.356c-0.283,1.068,1.372,0.697,0.718,2.178
						c-0.608,1.613-2.31,0.633-3.224,0.633C1289.619,568.635,1288.444,567.829,1287.267,569.375z M1259.191,527.539
						c1.284,1.308,2.319,2.724,3.496,4.053c0.306-0.305,1.047-0.436,2.834-0.131c2.876,0.501,7.277,1.242,9.412,1.482
						c2.702,0.392,3.574,5.425,5.1,6.101c1.525,0.609,1.221,1.198,1.307,2.702c0.218,1.481-1.177,1.045-0.915,2.048
						c0.218,1.111,1.133,2.179,2.31,1.111c1.002-1.111,2.92-2.615,5.796-2.114c4.663,0.785,3.05,3.618,4.925,4.053
						c1.808,0.61,1.133,0.981,1.808,1.743c0.631,0.85-0.239,1.918-1.33,2.289c-1.045,0.37-1.045,1.198-1.045,1.982
						c0,0.828-1.068,1.809-1.135,2.571c-0.174,0.609-1.001,2.898,0,2.898c0.938,0,1.743,0.894,2.616-0.175
						c0.697-0.98,4.445-4.598,4.359-6.602v-0.545c-0.96-3.812-2.158-7.539-3.662-11.199c-0.479-0.937-0.915-1.634-1.438-2.005
						c-1.678-1.308-7.757-4.358-8.89-5.971c-1.003-1.569,0.304-1.939,1.393-2.985c0.785-0.806,1.701-2.615,1.309-4.336
						c-0.524-0.829-1.133-1.678-1.743-2.572c-1.133-1.503-3.268-4.293-5.796-7.713c-1.134-1.373-2.267-2.594-3.444-3.988
						L1259.191,527.539z M1210.796,503.919c15.928,1.045,30.462,7.32,41.748,17.083l17.204-17.236
						c-15.765-13.988-36.313-22.944-58.952-24.077V503.919z M1159.481,520.697c11.395-9.697,26.017-15.928,41.989-16.778v-24.23
						c-22.728,1.002-43.363,9.893-59.269,23.772L1159.481,520.697z M1147.648,533.444c1.657-2.156,3.269-4.227,5.056-6.145
						l-17.213-17.301c-14.774,15.797-24.144,36.454-25.212,59.377h10.568c-0.392-0.414-1.307-2.048-1.023-3.181
						c0.327-1.177-0.631-5.426-0.348-6.188c0.283-0.654,1.286-1.482,1.873-2.18c0.436-0.871,0-2.048,0.327-2.527
						c0.349-0.632,1.307-1.743,2.201-2.746c0.698-0.871,0.501-3.355,2.811-4.357c2.224-1.111,2.725,0.131,4.227-0.13
						c1.657-0.24,1.483-2.31,1.483-2.31s-0.524-0.742,0.392-2.223c0.958-1.568,6.581-2.985,6.581-2.985s-0.153-1.416,3.356-4.184
						C1144.946,534.643,1146.71,533.815,1147.648,533.444z M1134.924,569.375c0.043-1.067,0.13-2.048,0.218-3.116
						c-0.872-0.37-1.831-0.61-2.833-0.61c-2.484,0-4.793,1.482-4.619,3.727H1134.924z M1118.232,578.724h-7.954
						c0.241,5.97,1.156,11.679,2.462,17.278c1.351-0.632,1.221-1.372,1.265-2.244c0.151-0.938,1.437-0.742,1.808-1.482
						c0.413-0.828,0.327-0.828-0.153-1.264c-0.348-0.437-1.655-1.373-1.917-2.724c-0.262-1.504,0.741-2.68,1.307-4.249
						c0.566-1.656-0.065-2.18,0.654-3.617C1116.489,579.072,1116.009,580.423,1118.232,578.724z M1152.833,620.777
						c-8.149-8.977-13.987-20.047-16.582-32.183c-0.195-0.065-0.349-0.24-0.458-0.545c-1.045-1.743-2.658-1.198-2.658-1.198
						s-0.741,5.229-0.741,5.556c0,0.219-0.415,2.92-1.613,2.79c-1.177-0.174-1.699-1.438-1.699-1.438s-1.874,0.13-2.07-0.567
						c-0.328-0.676-1.961-2.266-0.24-3.704c1.634-1.525,1.438,1.438,2.637-0.218c1.177-1.613-1.438-8.193,0.501-8.455
						c1.351-0.131,3.398,3.051,3.834,3.226c0.261,0,0.915-0.174,1.59-0.479c-0.109-1.613-0.37-3.225-0.413-4.837h-10.591
						c-0.457,1.089-0.174,5.011-1.219,5.708c-1.025,0.61-4.881-0.742-5.338,1.743c-0.633,3.617,1.307,2.004,1.307,4.488
						c0,2.485-1.198,0.916-0.436,3.27c0.829,2.44,4.642,3.246,5.229,5.969c0.698,2.877,1.766,4.141,2.114,4.881
						c0.283,0.611-1.657,2.092-0.371,4.053c1.155,1.984,2.354,5.209,2.07,6.32c-0.304,1.045-0.304,4.248,0.958,9.326
						c1.198,5.121,1.265,1.744,3.029,5.121c0.894,1.678,1.112,3.529,1.003,5.031c0.871,1.178,1.896,2.246,2.854,3.227
						L1152.833,620.777z M1189.834,642.35c-11.375-2.615-21.66-7.844-30.223-15.166l-17.236,17.344
						c13.205,11.572,29.678,19.611,47.938,22.467c-2.832-1.635-4.814-2.682-4.967-2.855c-0.262-0.695-1.047-2.309-3.749-5.49
						c-2.614-3.182-2.047-5.49-2.047-5.49c1.785-0.611,2.354-1.658,2.354-1.658s1.11-4.836,3.507-6.797
						C1186.566,643.832,1188.091,643.092,1189.834,642.35z M1245.005,632.523c-1.045,0.609-2.047,1.371-3.203,1.982
						c0.132,0,0.197,0.064,0.327,0.129c1.961,0.635,9.391,1.57,11.592,3.445c2.07,1.916,6.102,2.482,6.102,2.482
						c2.734-0.305,4.478-0.391,5.698-0.523l-3.094-3.094c-1.952-0.502-3.737-1.373-3.978-1.568c-3.203-1.482-2.418,0.697-5.25-0.871
						C1251.107,633.395,1247.25,632.85,1245.005,632.523z M1299.077,595.371c1.286-5.338,2.091-10.938,2.396-16.646h-14.468
						c1.002,1.045,2.2,1.699,2.811,2.418c1.46,1.416,0.938,3.159,1.242,4.598c0.218,1.438,1.504,1.308,3.878,3.53
						c2.397,2.31,2.091,4.313,3.138,5.622C1298.379,595.262,1298.641,595.371,1299.077,595.371z M1262.252,616.768
						c-0.61,0.785-1.167,1.395-1.668,2.07c0.109-0.064,0.283-0.195,0.371-0.305c1.427-0.871,2.256,0.676,3.257-0.764
						c0.828-1.436,0.828-2.613,1.657-3.855c0.829-1.309,3.356-1.418,4.967-1.373c1.569,0.064,1.483-0.479,2.397,2.268
						c0.871,2.854,0.61,5.271,0.61,5.271c0.785,0.609-1.395,2.789-1.525,7.408c-0.174,2.484-1.351,0.873-1.221,3.988l-0.436,0.414
						l1.743,1.699c0.132-0.195,0.392-0.566,0.524-1.066c1.089-2.377,2.57-3.596,3.311-2.42c0.568,0.742,1.134,3.291,1.743,5.84
						c8.717-9.717,15.363-21.332,19.351-34.102l-0.698,0.195c-0.958,0-4.139,0.809-7.212,1.242
						c-2.941,0.371-5.643,0.242-5.643,0.242s-1.613-1.484-2.223-0.547c-0.741,0.98-1.263,3.857-3.834,3.225
						c-2.397-0.543-1.133-3.225-1.961-3.42c-0.829-0.305,0.13,1.068-0.829,2.57c-0.915,1.352-3.486,5.012-3.834,5.797
						c-0.436,0.783-5.404,1.025-6.144,2.223C1264.474,614.283,1263.56,615.982,1262.252,616.768z M1241.562,602.779l6.929,6.93
						c0.262-1.395-0.936-4.141-0.936-4.141l-3.161-1.48l-1.263-0.809l0.654-1.502l-0.828-0.307L1241.562,602.779z M1237.357,626.227
						c1.067-0.525,2.026-1.221,3.073-1.854c-1.046-0.131-2.245,0.195-2.702,1.242
						C1237.619,625.875,1237.51,626.117,1237.357,626.227z M1166.235,620.582c8.563,7.168,19.175,11.941,30.79,13.553
						c0.109,0.371,0.109,0.764,0.174,1.199c0,0,0.762,0.609,1.895,0.74c1.33,0.174,3.182,0,4.642-1.568
						c1.655-1.656,1.307-0.48,2.506-0.74c0,0,1.133-1.875,2.287-3.422c1.177-0.631,1.701-2.244,2.2-2.375l0.067,6.537
						c8.301-0.611,16.167-2.832,23.14-6.406c-1.307-0.131-3.006-2.18-3.442-2.225c-0.871-0.26,0.631,2.42,0.741,3.053
						c0.153,0.676-3.661,1.873-3.965,1.416c-1.265-2.049-3.094-2.375-3.203-1.982c-0.327,3.312-1.701,2.439-1.701,2.439
						c-3.268-4.684-4.271-1.699-5.905-3.377c-1.569-1.723-2.352-1.068-2.352-1.068c-1.243-0.129-2.135,1.133-3.312,1.57
						c-0.566,0.174-1.09,1.787-2.267,2.418c-1.154,1.547-2.287,3.422-2.287,3.422c-1.199,0.26-0.851-0.916-2.506,0.74
						c-1.46,1.568-3.312,1.742-4.642,1.568c-1.133-0.131-1.895-0.697-1.895-0.697c-0.065-0.479-0.065-0.871-0.174-1.242
						c0-1.002-0.132-1.744-0.044-2.461c0.044-4.49,0.784-5.754,0.979-6.059c0.566-0.807,2.114-0.436,3.509-0.348v-5.535l-0.197-0.83
						c-0.174-0.434,0-0.695,0.197-0.869v-6.104c-7.169-0.783-13.706-3.486-19.088-7.516L1166.235,620.582z M1167.914,581.448
						c-0.132-0.633-0.262-1.199-0.35-1.81c-0.697,0.742-2.962,0.437-2.614,1.504
						C1164.994,581.513,1166.235,581.513,1167.914,581.448z M1146.079,589.226c2.441,9.261,7.061,17.782,13.402,24.819l16.189-16.19
						c-0.698-0.872-1.351-1.743-2.005-2.593c0,0-0.065,0-0.088,0.064c-1.438,0.676-0.435,2.528-1.263,3.291
						c-0.741,0.633-1.548,1.635-2.005,2.68c-0.392,1.047-2.962,3.486-4.401,2.225c-1.198-1.309-0.262-7.41-2.091-7.519
						c-0.85-0.13-0.415,0.501,0,2.812c0.436,2.396-1.221,1.307-1.961,0.914c-0.85-0.479-1.395-0.914-3.312-2.549
						c-2.005-1.809-0.522-2.92-0.522-2.92s-1.678-1.372-2.224-1.242c-0.479,0.131-0.218,1.242-1.569,0.742
						c-1.307-0.61-1.307-2.986-1.307-2.986s-1.351,0-4.707-0.98C1147.518,589.531,1146.733,589.357,1146.079,589.226z
						 M1201.47,513.246c-13.467,0.98-25.625,6.101-35.387,14.119l9.282,9.326c1.701,0.174,1.395,1.547,3.268,2.048
						c1.831,0.566,1.657-0.371,3.094-0.566c1.438-0.044,0.568,0.872,1.09,1.634c0.522,0.74,1.613-0.501,1.613-0.501
						c1.502-0.937,1.133,0.654,2.897-0.174c1.94-0.763,0.806-1.874,1.743-3.051c0.894-1.133,0.675-1.83,0.675-3.137
						c0-1.351,1.699-2.681,2.397-3.595c0.653-0.851,1.437-0.807,2.157,0.239c0.675,1.067-0.829,1.7-0.437,2.571
						c0.327,0.609,3.117-0.327,7.606-1.002V513.246z M1244.352,526.45c-9.261-7.408-20.875-12.159-33.556-13.161v17.825
						c3.747,0.653,6.493,1.83,6.493,1.83s0.654-0.175,0.654-0.24c2.091-3.857,4.923-3.355,5.687-3.857
						c0.764-0.566,0.566-1.373,1.634-2.397c1.046-1.133,2.723,0.218,3.008,1.22c0.348,0.872,0.435,4.837-1.875,8.193
						c-1.242,1.743-2.964,2.571-4.619,3.181c2.876,1.307,5.492,2.92,7.91,4.75l1.764-1.765c0.174-0.502,0.306-0.916,0.306-0.916
						s0.741-0.37,1.874-1.198l7.692-7.757c-0.153,0-0.392-0.131-0.698-0.327c-0.894-0.718-3.333-0.98,1.309-4.03
						C1242.826,527.168,1243.633,526.733,1244.352,526.45z M1254.157,535.994c-0.436-0.61-0.958-1.177-1.525-1.786l-1.743,1.656
						c0.938,1.133,2.572,2.876,2.135,2.07C1252.567,537.257,1253.546,537.431,1254.157,535.994z M1283.301,446.155
						c1.133-0.894,1.439,0.304,2.658,0.653c1.265,0.283,1.265-0.85,3.073,0c1.852,0.806,2.331,2.157,2.418,3.42
						c0.304,1.264,1.046,2.311,1.33,3.182c0.261,0.98-2.026,2.266-3.4,1.438c-1.372-0.74-2.941-3.29-2.941-3.29l-3.705-2.768
						C1282.734,448.791,1282.212,447.091,1283.301,446.155z M1213.236,430.662c0,0,0.958-1.394,1.831-1.046
						c0.892,0.393,3.071,0.414,3.071,0.414l5.47-1.983l4.378-1.874l1.636-0.938c0,0,6.23-1.155,12.267,3.727
						c0.675,0.566,1.242,1.046,1.678,1.351l-1.678-1.765c0,0,4.707,4.161,1.678,1.765l-0.61,1.547c0,0-3.792,2.375-5.229,2.68
						c-1.46,0.305-3.792-0.305-3.792-0.305l-3.203-0.457l-6.994,1.896c0,0-4.445,0.435-6.929-1.439
						c-2.507-1.873-3.356-2.375-3.356-2.375L1213.236,430.662z M1285.566,506.316c0.917,1.002,3.77,4.62,4.969,5.84
						c0.218,0.261,0.348,0.653,0.348,0.827C1289.25,510.673,1287.354,508.451,1285.566,506.316z"/>
					<path fill="#0590C7" d="M1294.937,754.35c0.915,0.174,13.467-2.439,32.99-4.49c19.611-2.111,27.455-1.176,41.488-4.836
						c15.58-4.01,23.49-12.203,27.586-16.691c0,0,1.002-0.479,0.61,0.566c-0.218,0.873-9.937,19.48-32.445,30.725
						c-22.531,11.287-46.436,8.541-52.318,7.277c-5.928-1.178-14.404-3.857-23.12-6.211c-8.781-2.309-20.11-4.662-25.558-4.336
						c0,0-0.698-1.133,1.133-1.523c2.92-0.438,13.945-2.791,20.962-5.973c12.311-5.512,22.573-17.736,30.746-25.363
						c8.126-7.668,21.637-21.398,29.48-24.84c0,0,0.698,0.064,0,0.873c-0.631,0.805-6.362,8.824-9.521,16.494
						c-3.029,7.605-6.973,15.666-12.703,22.203c-5.84,6.406-13.794,12.115-29.33,15.514
						C1294.937,753.738,1293.934,754.35,1294.937,754.35z M1434.152,668.932c-0.13,0.045-2.593,23.186-24.993,43.408
						c-16.821,15.316-31.073,21.047-39.09,23.053c-7.671,1.83-16.364,2.832-23.578,4.336c-7.233,1.352-17.998,4.25-20.089,5.295
						c0,0-0.829,0.305-0.392-0.393c0.522-0.74,3.356-1.873,11.265-12.246c7.866-10.59,14.621-34.406,14.621-34.406
						s3.922-12.311,8.041-20.787c4.097-8.346,17.106-26.824,19.59-28.74c0,0,1.221-0.676,1.133,0.174
						c-0.13,0.785-3.073,5.754-4.729,13.881c-2.941,13.334-3.551,27.193-5.229,32.422c-1.678,5.404-4.554,15.123-11.09,23.338
						c-7.518,9.195-7.518,8.148-13.379,13.508c-1.242,0.721,0.195,0.611,0.195,0.611s6.035-3.486,10.394-6.754
						c4.314-3.398,9.282-7.734,17.541-12.791c8.302-4.904,17.104-7.213,33.361-16.734c16.232-9.523,22.269-20.113,25.493-27.174
						C1433.214,668.932,1434.022,667.43,1434.152,668.932z M1396.019,599.729c0,0-1.068,7.279-0.326,12.572
						c0.827,5.361,6.602,27.129,6.362,38.939c-0.327,11.766-3.182,22.051-10.459,32.619l0.566,0.305c0,0,12.42-17.498,18.281-25.189
						c6.035-7.648,18.478-19.24,24.469-25.908c6.146-6.84,11.375-16.516,13.597-29.721h0.392c0,0,3.269,19.916-4.923,38.764
						c-8.281,18.85-16.997,25.756-22.879,31.291c-5.972,5.6-23.621,17.367-32.314,22.334c-8.629,5.033-15.296,10.59-15.296,10.59
						s-0.676-0.217-0.676-0.5c0-0.328,6.711-12.9,8.628-20.549c1.743-7.713,3.312-20.396,3.813-30.047
						c0.501-9.697,3.465-44.605,9.958-55.436L1396.019,599.729z M1392.904,545.21c-0.239-0.74-1.177-1.503-1.307,0.065
						c-0.132,1.569-0.132,17.062,4.531,36.346c3.182,12.638,11.201,39.396,12.246,43.121c1.808,6.299,1.395,20.658-0.174,25.889
						c0,0,0.174,1.48,0.959,0.609c0.719-0.873,8.498-13.924,12.921-18.783c4.468-4.924,15.101-18.041,18.107-24.992
						c2.855-6.863,9.588-21.855,8.521-43.45c-0.807-19.48-6.536-31.072-6.536-31.072s-0.785-0.545-0.568,0.196
						c0.197,0.741,1.33,9.521,0.241,17.432c-1.156,7.889-2.899,13.074-7.432,22.836c-4.554,9.653-8.911,20.962-10.262,24.753
						c-1.198,3.877-2.767,12.834-3.617,19.131c-0.96,6.342-3.748,11.004-3.748,11.004l-0.676-0.5c0,0,2.614-5.1,3.29-16.344
						c0.61-11.549-4.095-23.532-7.321-29.067C1406.849,573.407,1393.34,553.993,1392.904,545.21z M1415.913,470.973
						c-0.785-0.916-0.435,0.393-0.435,0.393s6.602,9.456,6.362,25.799c-0.262,16.298-2.55,17.126-3.008,31.638
						c-0.348,14.425,1.808,32.206,1.808,32.206h-0.783c0,0-0.371-9.151-5.165-19.828c-5.535-12.137-28.501-30.507-28.501-30.507
						s-7.801-7.452-8.608-11.679c-0.675-0.958-1.154-0.196-1.154-0.196s1.83,11.745,8.368,26.257
						c6.427,14.556,21.354,28.98,25.755,37.544c4.359,8.455,6.929,9.5,10.155,25.755l0.741,0.175c0,0,0.13-7.081,5.229-22.138
						c5.164-15.079,6.276-13.662,9.02-27.456c2.811-13.88,0.742-27.825-0.13-30.68
						C1434.697,505.401,1429.684,485.659,1415.913,470.973z M1412.993,529.893c0,0-2.811-6.08-8.498-12.115
						c-2.832-2.963-7.604-8.214-13.64-13.074c-6.058-4.837-13.074-9.261-17.366-13.249c-8.892-8.214-18.501-23.249-18.239-36.737
						c0,0,4.315,8.149,10.067,13.837c5.796,5.73,20.003,13.553,25.843,18.935c5.84,5.338,12.072,12.42,14.621,20.962h1.068
						c0,0-6.362-16.56-7.844-22.705c-1.569-6.167-2.877-16.342-6.538-26.366c-3.486-9.522-7.908-14.229-14.207-18.347
						c-0.305,0,0.524-0.545,0.524-0.545s24.448,3.705,33.774,35.931c2.658,9.326-0.174,30.898,0.392,39.418
						c0.61,8.541,0.871,14.054,0.871,14.054H1412.993z M1330.933,417.98c0,0,7.541,2.615,15.929,5.753
						c8.389,3.181,17.933,7.887,24.818,15.427c11.461,12.398,14.316,23.707,17.041,33.033c0.871,3.355,3.006,8.193,3.377,8.128
						c0.413-0.109-0.306,0.762-0.306,0.762s-21.463-16.996-27.76-24.208c-6.209-7.082-13.945-20.09-19.458-25.516
						C1338.952,425.781,1330.933,417.98,1330.933,417.98z M1055.934,770.518c0,0,20.811,24.186,52.318,24.316
						c24.754,0.133,41.924-13.617,41.924-13.617s18.13-12.879,27.456-17.477c7.713-3.855,19.393-0.762,19.393-0.762
						s-12.879,4.793-25.386,13.857c-12.748,9.24-17.062,12.291-29.438,24.885l10.633,8.979c0,0,7.715-10.875,22.466-23.578
						c14.665-12.682,23.142-17.279,32.271-21.006c0,0,29.787,13.357,54.159,44.277l10.809-9.064c0,0-24.481-25.145-54.683-38.09
						c0,0,2.833-1.742,15.776-0.5c5.687,0.566,10.895,5.033,17.169,9.479c6.32,4.271,18.25,12.615,26.53,16.102
						c8.28,3.465,19.175,5.73,28.153,5.973c9.02,0.195,34.471-3.357,52.884-25.016c0,0-0.109-0.633-0.676-0.326
						c-11.331,5.666-17.366,10.021-36.216,9.674c-10.066-0.326-22.661-3.312-38.916-10.656
						c-16.299-7.342-27.008-12.18-45.965-12.506c-18.827-0.045-27.805,3.158-29.592,3.855c0,0-8.672-3.9-25.755-4.096
						c-17.127-0.131-32.424,4.838-42.098,9.588c-9.544,4.598-27.979,14.926-49.201,14.795c-20.221-0.131-32.86-9.566-33.296-9.695
						C1056.262,769.842,1055.934,770.518,1055.934,770.518z M1119.475,755.221c-0.982,0.195-13.792-2.57-33.252-4.662
						c-19.589-2.135-28.174-0.938-42.402-4.533c-15.515-3.922-23.151-11.83-27.227-16.299c0,0-1.024-0.436-0.741,0.48
						c0.327,0.914,10.067,19.35,32.521,30.613c22.443,11.266,47.655,7.822,53.516,6.604c5.861-1.133,14.337-3.748,23.097-6.188
						c8.695-2.354,20.134-4.578,25.516-4.469c0,0,0.697-0.98-1.156-1.307c-2.832-0.436-10.501-0.74-20.917-6.037
						c-17.083-8.758-23.228-17.17-31.442-24.883c-8.128-7.779-22.03-21.092-29.875-24.578c0,0-0.587,0.086-0.021,0.936
						c0.675,0.873,6.385,8.586,9.609,16.189c3.006,7.693,6.951,15.34,12.877,21.877c5.775,6.43,14.402,12.203,29.896,15.559
						C1119.475,754.523,1120.454,755.09,1119.475,755.221z M978.973,670.459c0.109,0.064,3.041,23.314,25.309,43.559
						c16.942,15.273,32.391,21.113,40.518,22.9c7.736,1.678,16.299,2.68,23.447,4.053c7.233,1.438,17.344,3.857,19.435,4.967
						c0,0,0.741,0.307,0.35-0.434c-0.48-0.676-3.312-1.984-11.201-12.51c-7.866-10.371-15.078-34.34-15.078-34.34
						s-3.182-9.586-7.235-18.043c-4.096-8.344-18.51-28.979-20.929-30.766c0,0-1.165-0.785-1.057,0
						c0.033,0.785,2.909,5.383,4.642,13.553c1.667,8.062,4.097,27.172,5.882,32.533c1.613,5.295,4.598,15.623,11.201,23.75
						c7.495,9.281,7.495,8.084,13.335,13.51c1.263,0.676-0.174,0.436-0.174,0.436s-6.625-3.596-10.851-7.039
						c-4.38-3.289-6.102-5.469-14.382-10.459c-8.279-5.031-19.752-8.934-35.997-18.52c-16.244-9.545-23.063-19.982-26.343-27.15
						C979.846,670.459,979.082,669.064,978.973,670.459z M1016.104,601.342c0,0,1.242,7.539,0.49,12.812
						c-0.741,5.359-6.058,26.887-5.71,38.588c0.306,11.768,3.421,22.074,10.786,32.664l-0.587,0.326
						c0,0-12.388-17.432-18.346-25.102c-5.896-7.691-18.74-18.826-24.46-25.996c-5.633-7.146-12.125-16.035-14.24-29.24h-0.534
						c0,0-2.843,19.611,5.427,38.438c8.312,18.738,17.169,25.908,23.075,31.377c5.928,5.578,23.761,17.17,32.412,22.139
						c8.814,5.055,15.438,10.588,15.438,10.588s0.676-0.195,0.676-0.5s-6.809-12.879-8.64-20.592
						c-1.809-7.582-3.431-20.285-3.867-29.982c-0.49-9.652-4.347-44.799-10.83-55.738L1016.104,601.342z M1018.968,545.973
						c0.283-0.763,1.209-1.569,1.362,0.044c0,1.612-1.079,23.86-3.967,36.606c-2.788,12.703-11.286,39.244-12.158,42.992
						c-0.871,3.791-1.34,20.656,0.076,26.018c0,0-0.076,1.48-0.763,0.543c-0.783-0.85-8.835-13.379-13.291-18.215
						c-4.478-4.924-15.329-18.281-18.228-25.211c-3.039-6.973-10.285-25.821-8.834-47.35c1.458-21.484,6.351-26.758,6.351-26.758
						s0.882-0.435,0.643,0.261c-0.218,0.784-1.416,9.196-0.304,17.04c1.154,7.822,3.703,16.059,8.737,25.211
						c5.176,9.369,8.182,19.088,9.391,22.966c1.297,3.727,3.149,11.809,4.118,18.086c1.014,6.361,3.639,11.025,3.639,11.025
						l0.457-0.195c0,0-2.723-5.035-2.985-16.627c-0.283-11.549,2.528-19.959,7.289-29.023
						C1005.317,574.148,1018.555,554.602,1018.968,545.973z M994.684,472.542c0.72-0.828,1.23,0.131,1.23,0.131
						s-6.775,8.149-6.492,24.579c0.316,16.429,3.039,19.218,3.454,33.73c0.337,14.425-1.743,31.791-1.743,31.791h0.838
						c0,0-0.153-9.304,5.719-21.245c5.829-11.94,28.533-30.527,28.533-30.527s6.908-7.081,7.683-11.134
						c0.608-1.068,1.077,0.174,1.077,0.174s-1.133,10.59-7.702,25.059c-6.482,14.555-20.221,28.697-24.545,37.195
						c-4.371,8.498-8.128,11.548-11.375,27.847l-0.796,0.065c0,0-0.446-7.583-5.622-22.596c-5.098-15.058-6.481-12.812-9.183-26.693
						c-2.736-13.749-0.622-29.546,0.195-32.335C976.784,505.706,980.858,487.337,994.684,472.542z M998.54,531.288
						c0,0,2.757-6.059,8.5-12.072c2.788-3.007,7.625-8.215,13.629-13.074c6.101-4.859,13.052-9.828,17.485-13.858
						c8.869-8.106,17.104-23.142,16.844-36.607c0,0-3.312,7.975-9.107,13.641c-5.819,5.796-20.048,13.988-25.92,19.393
						c-5.894,5.404-12.332,12.704-14.806,21.354l-0.469-0.131c0,0,6.004-16.909,7.541-23.075c1.449-6.167,2.886-16.408,6.548-26.388
						c3.552-9.522,7.439-13.924,13.748-18.086c0.153,0-0.054-0.696-0.054-0.696s-24.917,3.703-34.319,35.996
						c-2.755,9.37,0.741,31.203,0.121,39.788c-0.589,8.455-0.589,13.815-0.589,13.815H998.54z M1078.574,419.396
						c0,0-5.796,2.027-14.294,5.121c-8.279,3.138-18.39,8.171-25.254,15.645c-11.461,12.508-14.372,24.078-17.073,33.514
						c-1.47,5.076-2.853,8.716-2.853,8.716s21.429-17.019,27.835-24.165c6.188-7.104,13.619-20.635,19.219-26.083
						C1071.689,426.653,1078.574,419.396,1078.574,419.396z"/>
				</g>
			</g>
			<path fill="#F8991D" d="M896.228,600.469c0,59.617-48.232,107.859-107.839,107.859c-59.541,0-107.881-48.242-107.881-107.859
				c0-59.551,48.34-107.793,107.881-107.793C847.995,492.675,896.228,540.917,896.228,600.469z"/>
			<path fill="#F8991D" d="M896.228,992.469c0,59.574-48.232,107.816-107.839,107.816c-59.541,0-107.881-48.242-107.881-107.816
				c0-59.573,48.34-107.859,107.881-107.859C847.995,884.609,896.228,932.896,896.228,992.469z"/>
			<path fill="#F8991D" d="M896.228,208.145c0,59.617-48.232,107.816-107.839,107.816c-59.541,0-107.881-48.199-107.881-107.816
				c0-59.53,48.34-107.859,107.881-107.859C847.995,100.285,896.228,148.614,896.228,208.145z"/>
			<path fill="#F8991D" d="M484.214,600.469c0,59.617-48.265,107.859-107.838,107.859c-59.497,0-107.935-48.242-107.935-107.859
				c0-59.551,48.438-107.793,107.935-107.793C435.949,492.675,484.214,540.917,484.214,600.469z"/>
			<path fill="#F8991D" d="M484.214,992.469c0,59.574-48.221,107.816-107.838,107.816c-59.497,0-107.935-48.242-107.935-107.816
				c0-59.573,48.438-107.859,107.935-107.859C435.993,884.609,484.214,932.896,484.214,992.469z"/>
			<path fill="#F8991D" d="M484.214,208.145c0,59.617-48.221,107.816-107.838,107.816c-59.497,0-107.935-48.199-107.935-107.816
				c0-59.53,48.438-107.859,107.935-107.859C435.993,100.285,484.214,148.614,484.214,208.145z"/>
			<path fill="#F8991D" d="M1308.185,992.469c0,59.574-48.276,107.816-107.848,107.816c-59.573,0-107.817-48.242-107.817-107.816
				c0-59.573,48.244-107.859,107.817-107.859C1259.909,884.609,1308.185,932.896,1308.185,992.469z"/>
			<path fill="#F8991D" d="M1308.185,208.145c0,59.617-48.276,107.816-107.848,107.816c-59.573,0-107.817-48.199-107.817-107.816
				c0-59.53,48.244-107.859,107.817-107.859C1259.909,100.285,1308.185,148.614,1308.185,208.145z"/>
			<g>
				<path fill="#FFFFFF" d="M2499.041,600.557c0,276.033-223.955,499.729-499.988,499.729
					c-276.251,0-500.077-223.695-500.077-499.729c0-276.099,223.825-500.185,500.077-500.185
					C2275.086,100.372,2499.041,324.458,2499.041,600.557z"/>
				<g>
					<path fill="#F8991D" d="M2456.158,679.566h-76.177l-18.128,76.525h-62.493l84.936-317.063h72.734l42.011,158.26
						c-1.786-274.574-224.914-497.003-499.879-497.003c-220.121,0-406.881,142.2-473.797,339.572h35.931V660
						c0,32.467,14.164,49.506,39.134,49.506c25.015,0,39.048-17.039,39.048-49.506V439.857h63.32v219.708
						c0,69.943-42.882,101.975-102.368,101.975c-37.958,0-69.227-13.074-86.81-40.746
						c53.864,217.942,250.669,379.492,485.542,379.492c222.06,0,410.28-144.772,475.388-345.107L2456.158,679.566z
						 M1934.185,756.092H1883l-93.957-192.621v192.621h-57.96V439.857h60.4l84.828,183.928V439.857h57.875V756.092z
						 M2113.755,494.811h-88.163v76.591l68.834-0.218v56.435h-68.834v128.473h-62.928V439.857h151.091V494.811z M2204.204,642.959
						v113.133h-62.319V439.857h75.24c66.981,0,110.256,33.687,110.256,100.32c0,67.397-43.709,101.911-113.567,102.782H2204.204z"/>
					<path fill="#F8991D" d="M2215.034,592.582h-11.201V490.191h12.027c33.73,0,51.643,17.083,51.643,50.814
						C2267.503,576.371,2249.178,592.582,2215.034,592.582z"/>
					<path fill="#F8991D" d="M2390.921,628.84l27.41-116.161l27.194,116.161H2390.921z"/>
				</g>
			</g>
		</g>
		<path fill="#FFFFFF" d="M2671.703,755.711V291.829l30.725-6.627v470.509H2671.703z"/>
		<path fill="#FFFFFF" d="M3026.54,755.711l-7.831-46.99c-37.352,33.134-71.691,53.618-112.658,53.618
			c-63.858,0-93.98-36.75-93.98-98.199V446.055h30.724v215.073c0,46.99,22.291,72.896,66.872,72.896
			c33.736,0,69.28-19.881,108.439-56.028v-231.94h30.725v309.656H3026.54z"/>
		<path fill="#FFFFFF" d="M3364.507,755.711V540.639c0-46.991-22.29-72.896-66.872-72.896c-33.736,0-69.28,19.881-108.439,56.027
			v231.941h-30.725V446.055h22.291l7.832,46.991c37.352-33.134,71.689-53.618,112.656-53.618c63.859,0,93.981,36.749,93.981,98.198
			v218.085H3364.507z"/>
		<path fill="#FFFFFF" d="M3616.325,762.339c-75.908,0-136.152-59.041-136.152-161.456c0-102.416,61.448-161.455,137.96-161.455
			c39.158,0,73.498,13.856,100.005,34.339l-5.422,31.93c-31.327-26.508-60.244-39.159-95.788-39.159
			c-65.667,0-104.826,54.823-104.826,134.345c0,77.716,37.955,134.346,107.235,134.346c33.737,0,65.064-12.049,96.994-39.762
			l4.217,29.52C3692.233,748.482,3657.894,762.339,3616.325,762.339z"/>
		<path fill="#FFFFFF" d="M4012.124,755.711V540.639c0-46.991-22.29-72.896-66.872-72.896c-33.736,0-69.28,19.881-108.439,56.027
			v231.941h-30.725V291.829l30.725-6.627v207.241c37.352-32.532,71.088-53.015,112.055-53.015c63.859,0,93.981,35.544,93.981,96.994
			v219.29H4012.124z"/>
		<path fill="#FFFFFF" d="M4254.303,759.928c-40.364,0-76.512-9.639-106.031-21.085V291.829l30.725-6.627v205.434
			c23.495-27.11,54.221-51.208,97.596-51.208c68.077,0,126.514,48.798,126.514,153.021
			C4403.105,705.105,4336.234,759.928,4254.303,759.928z M4275.99,467.743c-36.749,0-66.269,22.291-96.994,56.63v193.987
			c19.881,7.832,45.786,14.459,78.921,14.459c62.052,0,113.26-43.376,113.26-139.165
			C4371.177,512.323,4330.812,467.743,4275.99,467.743z"/>
		<path fill="#FFFFFF" d="M4609.141,762.339c-77.112,0-136.152-59.041-136.152-161.456c0-102.416,60.848-161.455,136.152-161.455
			c77.717,0,136.756,59.04,136.756,161.455C4745.896,703.298,4685.049,762.339,4609.141,762.339z M4609.141,466.538
			c-66.871,0-104.223,54.823-104.223,134.345c0,77.716,37.955,134.346,104.223,134.346c66.872,0,104.826-54.221,104.826-134.346
			C4713.967,523.168,4676.013,466.538,4609.141,466.538z"/>
		<path fill="#FFFFFF" d="M5019.988,760.531l-98.199-141.575l-92.775,136.755h-34.34l110.248-159.647l-103.621-146.997l30.725-7.832
			l90.367,131.333l87.957-126.513h34.34l-105.429,148.804l110.85,158.443L5019.988,760.531z"/>
	</g>
</g>
</svg>
